<?xml version="1.0" encoding="utf-8"?>
<!-- Generator: Adobe Illustrator 24.0.1, SVG Export Plug-In . SVG Version: 6.00 Build 0)  -->
<svg version="1.1" id="Layer_1" xmlns="http://www.w3.org/2000/svg" xmlns:xlink="http://www.w3.org/1999/xlink" x="0px" y="0px"
	 viewBox="0 0 1280 720" style="enable-background:new 0 0 1280 720;" xml:space="preserve">
<style type="text/css">
	.st0{clip-path:url(#SVGID_2_);}
	.st1{fill-rule:evenodd;clip-rule:evenodd;fill:url(#SVGID_3_);stroke:#FFFFFF;stroke-width:1.3333;stroke-miterlimit:8;}
	.st2{fill:url(#SVGID_4_);}
	.st3{fill:#FFFFFF;}
	.st4{font-family:'ArialMT';}
	.st5{font-size:29px;}
	.st6{clip-path:url(#SVGID_6_);}
	.st7{clip-path:url(#SVGID_8_);}
	.st8{clip-path:url(#SVGID_10_);}
	.st9{fill:#737373;}
	.st10{fill:#05FAA3;}
	.st11{fill:#D1D1D1;}
	.st12{fill:#E5E5E5;}
	.st13{fill-rule:evenodd;clip-rule:evenodd;fill:url(#SVGID_11_);stroke:#FFFFFF;stroke-width:1.3333;stroke-miterlimit:8;}
	.st14{fill:url(#SVGID_12_);}
	.st15{clip-path:url(#SVGID_14_);}
	.st16{clip-path:url(#SVGID_16_);}
	.st17{clip-path:url(#SVGID_18_);}
	.st18{fill:#E6E6E6;}
	.st19{fill:#D2D2D2;}
	.st20{fill:#2F2F2F;}
	.st21{fill:#505050;}
	.st22{fill:#F2F2F2;}
	.st23{fill:#E4E4E4;}
	.st24{fill:#C4C4C4;}
	.st25{fill-rule:evenodd;clip-rule:evenodd;fill:url(#SVGID_19_);stroke:#FFFFFF;stroke-width:1.3333;stroke-miterlimit:8;}
	.st26{fill:url(#SVGID_20_);}
	.st27{clip-path:url(#SVGID_22_);}
	.st28{clip-path:url(#SVGID_24_);}
	.st29{clip-path:url(#SVGID_26_);}
	.st30{fill:#CFCFCF;}
	.st31{fill-rule:evenodd;clip-rule:evenodd;fill:url(#SVGID_27_);stroke:#FFFFFF;stroke-width:1.3333;stroke-miterlimit:8;}
	.st32{fill:url(#SVGID_28_);}
	.st33{clip-path:url(#SVGID_30_);}
	.st34{clip-path:url(#SVGID_32_);}
	.st35{clip-path:url(#SVGID_34_);}
	.st36{fill:#F1F1F1;}
</style>
<g>
	<defs>
		<rect id="SVGID_1_" width="1280" height="720"/>
	</defs>
	<clipPath id="SVGID_2_">
		<use xlink:href="#SVGID_1_"  style="overflow:visible;"/>
	</clipPath>
	<g class="st0">
		
			<linearGradient id="SVGID_3_" gradientUnits="userSpaceOnUse" x1="344.0185" y1="437.9578" x2="52.0429" y2="174.3337" gradientTransform="matrix(1 0 0 -1 0 722)">
			<stop  offset="0" style="stop-color:#7D00FF"/>
			<stop  offset="0.46" style="stop-color:#6800FE"/>
			<stop  offset="1" style="stop-color:#4300FC"/>
		</linearGradient>
		<path class="st1" d="M306.7,566.5H97.3c-15.4,0-27.8-12.5-27.8-27.8V273.5h265v265.2C334.5,554,322,566.5,306.7,566.5z"/>
		
			<linearGradient id="SVGID_4_" gradientUnits="userSpaceOnUse" x1="345.9223" y1="436.3499" x2="53.9466" y2="172.7259" gradientTransform="matrix(1 0 0 -1 0 722)">
			<stop  offset="0" style="stop-color:#7D00FF"/>
			<stop  offset="0.46" style="stop-color:#6800FE"/>
			<stop  offset="1" style="stop-color:#4300FC"/>
		</linearGradient>
		<rect x="77" y="273" class="st2" width="248" height="287"/>
		<text transform="matrix(1 0 0 1 109.445 424)" class="st3 st4 st5">MANAGEMENT</text>
		<g>
			<defs>
				<rect id="SVGID_5_" x="26" y="41" width="331" height="331"/>
			</defs>
			<clipPath id="SVGID_6_">
				<use xlink:href="#SVGID_5_"  style="overflow:visible;"/>
			</clipPath>
			<g class="st6">
				<g>
					<defs>
						<rect id="SVGID_7_" x="26" y="41" width="331" height="331"/>
					</defs>
					<clipPath id="SVGID_8_">
						<use xlink:href="#SVGID_7_"  style="overflow:visible;"/>
					</clipPath>
					<g class="st7">
						<g>
							<defs>
								<rect id="SVGID_9_" x="26" y="41" width="331" height="331"/>
							</defs>
							<clipPath id="SVGID_10_">
								<use xlink:href="#SVGID_9_"  style="overflow:visible;"/>
							</clipPath>
							<g class="st8">
								<path class="st9" d="M249.5,239.5c-19.2,0-35.1-9.5-35.1-11.2c0-16.9,15.6-30.8,34.8-30.8s34.8,13.8,34.8,30.8
									C284,230,268.8,239.5,249.5,239.5z"/>
								<path class="st9" d="M203.1,263.5c0-19.2,9.6-35.1,11.3-35.1c16.9,0,30.7,15.6,30.7,34.8S231.3,298,214.4,298
									C212.7,298,203.1,282.8,203.1,263.5z"/>
								<path class="st9" d="M216.3,257.3h0.2c0.6,0,1.2-0.3,1.6-0.8c2.1-3,5.6-5,9.5-5c6.7,0,12,5.6,11.6,12.4
									c-0.4,5.5-5.3,10.4-10.8,10.8c-4.3,0.3-8.1-1.7-10.3-4.9c-0.4-0.5-0.9-0.8-1.6-0.8h-0.2c-1,0-1.9,0.8-1.9,1.9v27.1H284
									c0,0,0-41.5,0-42.5v-27.1h-27.1c-1,0-1.9-0.8-1.9-1.9v-0.2c0-0.6,0.3-1.2,0.8-1.6c3.2-2.2,5.2-6,4.9-10.3
									c-0.4-5.5-5.3-10.4-10.8-10.8c-6.8-0.4-12.4,4.9-12.4,11.6c0,3.9,2,7.4,5,9.5c0.5,0.4,0.8,0.9,0.8,1.6v0.2
									c0,1-0.8,1.9-1.9,1.9h-27.1v27.1C214.4,256.5,215.2,257.3,216.3,257.3z"/>
								<path class="st10" d="M200.5,205.1c4.3,0.3,8.1-1.7,10.3-4.9c0.4-0.5,0.9-0.8,1.6-0.8h0.1c1,0,1.9,0.8,1.9,1.9v27.1h27.1
									c1,0,1.9-0.8,1.9-1.9v-0.2c0-0.6-0.3-1.2-0.8-1.6c-3-2.1-5-5.6-5-9.5c0-6.7,5.6-12,12.4-11.6c5.5,0.4,10.4,5.3,10.8,10.8
									c0.3,4.3-1.7,8.1-4.9,10.3c-0.5,0.4-0.8,0.9-0.8,1.6v0.2c0,1,0.8,1.9,1.9,1.9H284v-69.6h-27.1c-1,0-1.9-0.8-1.9-1.9v-0.2
									c0-0.6,0.3-1.2,0.8-1.6c3.2-2.2,5.2-6,4.9-10.3c-0.4-5.5-5.3-10.4-10.8-10.8c-6.8-0.4-12.4,4.9-12.4,11.6c0,3.9,2,7.4,5,9.5
									c0.5,0.4,0.8,0.9,0.8,1.6v0.2c0,1-0.8,1.9-1.9,1.9h-27.1v27.1c0,1-0.8,1.9-1.9,1.9h-0.1c-0.6,0-1.2-0.3-1.6-0.8
									c-2.1-3-5.6-5-9.5-5c-6.7,0-12,5.6-11.6,12.4C190.1,200,194.8,204.7,200.5,205.1z"/>
								<path class="st11" d="M120.1,263.9c0.4,5.8,5,10.4,10.8,10.8c4.3,0.3,8.1-1.7,10.3-4.9c0.4-0.5,0.9-0.8,1.6-0.8h0.1
									c1,0,1.9,0.8,1.9,1.9v27.1h69.6l0,0v-27.1c0-1,0.8-1.9,1.9-1.9h0.2c0.6,0,1.2,0.3,1.6,0.8c2.2,3.2,6,5.2,10.3,4.9
									c5.5-0.4,10.4-5.3,10.8-10.8c0.4-6.8-4.9-12.4-11.6-12.4c-3.9,0-7.4,2-9.5,5c-0.4,0.5-0.9,0.8-1.6,0.8h-0.2
									c-1,0-1.9-0.8-1.9-1.9v-27.1l0,0h-0.1v0.1h-27.1c-1,0-1.9,0.8-1.9,1.9v0.2c0,0.6,0.3,1.2,0.8,1.6c3,2.1,5,5.6,5,9.5
									c0,6.7-5.6,12-12.4,11.6c-5.5-0.3-10.4-5.3-10.8-10.8c-0.3-4.3,1.7-8.1,4.9-10.3c0.5-0.4,0.8-0.9,0.8-1.6v-0.2
									c0-1-0.8-1.9-1.9-1.9h-27v27c0,1-0.8,1.9-1.9,1.9h-0.1c-0.6,0-1.2-0.3-1.6-0.8c-2.1-3-5.6-5-9.5-5
									C125,251.5,119.7,257.1,120.1,263.9z"/>
								<path class="st12" d="M114.4,170.5c3.8-1,6.7-3.7,8-7.1c0.2-0.6,0.7-1,1.3-1.2l0.2-0.1c1-0.3,2,0.4,2.3,1.4l6.6,26.3
									l26.3-6.6c1-0.3,2,0.4,2.3,1.4l0,0.2c0.2,0.6,0,1.2-0.4,1.7c-2.6,2.9-3.6,7.1-2.3,11.2c1.7,5.2,7.7,8.8,13.1,7.8
									c6.7-1.2,10.8-7.8,9.2-14.2c-1-3.8-3.7-6.7-7.1-8c-0.6-0.2-1-0.7-1.2-1.3l0-0.2c-0.3-1,0.4-2,1.4-2.3l26.3-6.6l0,0l-0.1,0
									l-6.6-26.3c-0.3-1-1.3-1.6-2.3-1.4l-0.1,0c-0.6,0.2-1.1,0.6-1.3,1.2c-1.4,3.6-4.6,6.5-8.8,7.3c-5.7,1-11.3-2.4-13.1-7.9
									c-2.1-6.4,1.8-13.2,8.2-14.8c3.8-1,7.7,0.1,10.4,2.5c0.5,0.4,1.1,0.6,1.7,0.4l0.1,0c1-0.3,1.6-1.3,1.4-2.3l-6.6-26.3
									l-26.2,6.6c-1,0.3-1.6,1.3-1.4,2.3l0,0.2c0.2,0.6,0.6,1.1,1.2,1.3c3.4,1.3,6.2,4.2,7.1,8c1.6,6.5-2.5,13-9.2,14.2
									c-5.4,1-11.4-2.6-13.1-7.8c-1.3-4.1-0.3-8.3,2.3-11.2c0.4-0.5,0.6-1.1,0.4-1.7l0-0.2c-0.3-1-1.3-1.6-2.3-1.4l-26.3,6.6
									l6.6,26.3c0.3,1-0.4,2-1.4,2.3l-0.2,0.1c-0.6,0.2-1.2,0-1.7-0.4c-2.9-2.6-7.1-3.6-11.2-2.3c-5.2,1.7-8.8,7.7-7.8,13.1
									C101.4,168,107.9,172.1,114.4,170.5z"/>
							</g>
						</g>
					</g>
				</g>
			</g>
		</g>
		<a xlink:href="https://en.wikipedia.org/wiki/Bullseye_(target)" > 
		
		<linearGradient id="SVGID_11_" gradientUnits="userSpaceOnUse" x1="634.0186" y1="437.9577" x2="342.0426" y2="174.3337" gradientTransform="matrix(1 0 0 -1 0 722)">
			<stop  offset="0" style="stop-color:#7D00FF"/>
			<stop  offset="0.46" style="stop-color:#6800FE"/>
			<stop  offset="1" style="stop-color:#4300FC"/>
		</linearGradient>
		<path class="st13" d="M596.7,566.5H387.3c-15.4,0-27.8-12.5-27.8-27.8V273.5h265v265.2C624.5,554,612,566.5,596.7,566.5z"/>
		
			<linearGradient id="SVGID_12_" gradientUnits="userSpaceOnUse" x1="636.1469" y1="436.1011" x2="344.1709" y2="172.4771" gradientTransform="matrix(1 0 0 -1 0 722)">
			<stop  offset="0" style="stop-color:#7D00FF"/>
			<stop  offset="0.46" style="stop-color:#6800FE"/>
			<stop  offset="1" style="stop-color:#4300FC"/>
		</linearGradient>
		<rect x="367" y="273" class="st14" width="249" height="287"/>
		<text transform="matrix(1 0 0 1 390.606 408)" class="st3 st4 st5">BENCHMARKING </text>
		<text transform="matrix(1 0 0 1 445.026 440)" class="st3 st4 st5">ENGINE</text>
		<g>
			<defs>
				<rect id="SVGID_13_" x="345" y="42" width="298" height="298"/>
			</defs>
			<clipPath id="SVGID_14_">
				<use xlink:href="#SVGID_13_"  style="overflow:visible;"/>
			</clipPath>
			<g class="st15">
				<g>
					<defs>
						<rect id="SVGID_15_" x="345" y="42" width="298" height="298"/>
					</defs>
					<clipPath id="SVGID_16_">
						<use xlink:href="#SVGID_15_"  style="overflow:visible;"/>
					</clipPath>
					<g class="st16">
						<g>
							<defs>
								<rect id="SVGID_17_" x="345" y="42" width="298" height="298"/>
							</defs>
							<clipPath id="SVGID_18_">
								<use xlink:href="#SVGID_17_"  style="overflow:visible;"/>
							</clipPath>
							<g class="st17">
								<path class="st18" d="M452.3,117.6V117h-18V99.3h-0.6V117h-18V99.6H415v35.8h-18.2v0.6H415v15.1h0.6V136h18v6.4h0.6V136
									h17.8v-0.6h-17.8v-17.8H452.3z M433.6,135.4h-18v-17.8h18V135.4z"/>
								<path class="st18" d="M560.4,135.8v-0.6h-18.3v-17.2h-0.6v17.2h-18.6v-17.7h27v-0.6h-45.2V85.7H504v31.1h-18.1V98.6h18V98
									h-18V85.8h-0.6v31.1h-6.1v0.6h6.1v17.7v0.6v18.8v0.6v1.1h0.6v-1.1H504v33.2h0.6v-33.2h17.6v12.7h0.6v-12.7h18.6v12.1h0.6
									v-12.1h18.3v-0.6h-18.3v-18.8H560.4z M522.2,117.4v17.7h-17.6v-17.7H522.2z M485.9,117.4H504v17.7h-18.1V117.4z
									 M485.9,154.5v-18.8H504v18.8H485.9z M504.6,154.5v-18.8h17.6v18.8H504.6z M541.5,154.5h-18.6v-18.8h18.6V154.5z"/>
								<path class="st18" d="M453.3,268.9h-6.5c0,0-47.3-11.5-47.3-59c0-41.9,40.4-54.1,40.4-54.1l-0.7,32.9
									c-12.4,0-22.4,10-22.4,22.4l0,0c0,29.3,26.4,26.4,26.4,26.4h10.2V268.9z"/>
								<path class="st19" d="M457.7,137.9v13.8h-22.4c0,0-42.2,16.3-42.2,58.1c0,32.1,24.4,59,53.8,59v-31.4h-10.2
									c0,0-26.4,2.9-26.4-26.4l0,0c0-12.4,10-22.4,22.4-22.4h24.9v9.2h19.9v-59.9H457.7z"/>
								<path d="M457.7,235.1h19.9v6.7h-19.9V235.1z"/>
								<path class="st20" d="M438.1,229.2h58v8.7h-58V229.2z"/>
								<path class="st10" d="M461.1,99.7h13v37.9h-13V99.7z"/>
								<path class="st21" d="M455.5,135.7h24.2v4.3h-24.2V135.7z"/>
								<path d="M460.2,98.5h14.9v1.9h-14.9V98.5z"/>
								<path class="st20" d="M451.2,212.7h5.6v2.8h-5.6V212.7z"/>
								<path class="st20" d="M478.5,212.7h5.6v2.8h-5.6V212.7z"/>
								<path class="st20" d="M464.8,212.7h5.6v2.8h-5.6V212.7z"/>
								<path class="st19" d="M476.6,202.2h9.3v11.3h-9.3V202.2z"/>
								<path class="st19" d="M463.1,202.2h9.3v11.3h-9.3V202.2z"/>
								<path class="st19" d="M449.3,202.2h9.3v11.3h-9.3V202.2z"/>
								<path class="st21" d="M488.7,202.2l-2.1,0.4c-12.8,2.2-25.8,2.2-38.5-0.1l-1.5-0.3l0,0c0-3.7,3-6.7,6.7-6.7H482
									C485.7,195.5,488.7,198.5,488.7,202.2L488.7,202.2z"/>
								<path class="st21" d="M442.2,277.9h-29.7l16-31.6c1.2-2.4,3.7-3.9,6.3-3.9l0,0c4.1,0,7.4,3.3,7.4,7.4V277.9z"/>
								<path class="st9" d="M440.9,277.9h-29.7l16-31.6c1.2-2.4,3.7-3.9,6.3-3.9l0,0c4.1,0,7.4,3.3,7.4,7.4V277.9z"/>
								<path class="st19" d="M437.8,251.2c0,2.6-2.1,4.7-4.7,4.7c-2.6,0-4.7-2.1-4.7-4.7c0-2.6,2.1-4.7,4.7-4.7
									C435.7,246.6,437.8,248.6,437.8,251.2z"/>
								<path class="st20" d="M428.2,259.4c0,1.3-1,2.3-2.3,2.3c-1.3,0-2.3-1-2.3-2.3c0-1.3,1-2.3,2.3-2.3
									C427.1,257.1,428.2,258.1,428.2,259.4z"/>
								<path d="M504.2,284.6H392.5l0,0c0-6.5,5.3-11.8,11.8-11.8h100V284.6z"/>
								<path class="st20" d="M443.1,172.7c4.7,0,8.5-3.9,8.4-8.6c-0.1-4.6-4-8.1-8.6-8.1h-4.5c0,0,0,0,0,0v16.7c0,0,0,0,0,0H443.1"
									/>
								<path d="M447.4,164.3c0,4.6-3.8,8.4-8.4,8.4s-8.4-3.8-8.4-8.4c0-4.6,3.8-8.4,8.4-8.4S447.4,159.7,447.4,164.3z"/>
								<path class="st9" d="M443.2,164.3c0,2.3-1.9,4.2-4.2,4.2c-2.3,0-4.2-1.9-4.2-4.2c0-2.3,1.9-4.2,4.2-4.2
									C441.4,160.1,443.2,162,443.2,164.3z"/>
								<path class="st20" d="M437.7,186.3c3.2,0,5.9-2.7,5.7-6c-0.1-3.1-2.8-5.5-5.9-5.5h-2.6c0,0,0,0,0,0v11.4c0,0,0,0,0,0H437.7z
									"/>
								<path d="M440.6,180.6c0,3.2-2.6,5.7-5.7,5.7c-3.2,0-5.7-2.6-5.7-5.7c0-3.2,2.6-5.7,5.7-5.7
									C438,174.8,440.6,177.4,440.6,180.6z"/>
								<path class="st20" d="M438.1,180.6c0,1.8-1.4,3.2-3.2,3.2s-3.2-1.4-3.2-3.2c0-1.8,1.4-3.2,3.2-3.2S438.1,178.8,438.1,180.6z
									"/>
								<path class="st20" d="M459.1,255.4l-0.7,0.2l-5.4,1.4c0,0,0,0,0,0l0.7,2.9h-2.1v-1.8h-3.1v5.9h3.1v-2.2h2.6
									c0,0,0.4,1.6,0.4,1.6c0.4,1.7,2.9,2.7,6.5,2.9c0.2,0,0.4-0.1,0.5-0.2L459.1,255.4z"/>
								<path class="st21" d="M486.1,248.4l-27.6,7.2l2.8,10.7c3.2,0.2,7.2-0.3,11.5-1.4c9.1-2.4,15.8-6.9,15-10.1
									C487.7,254.8,486.1,248.4,486.1,248.4C486.1,248.4,486.1,248.4,486.1,248.4z"/>
								<path class="st19" d="M486,248.3c0.8,3.2-5.9,7.8-15,10.1s-17.2,1.7-18-1.5c-0.8-3.2,5.9-7.8,15-10.1S485.2,245,486,248.3z"
									/>
								<path class="st22" d="M480.1,249.8c0.5,2.1-3.8,5-9.6,6.5c-5.9,1.5-11.1,1.1-11.6-1c-0.5-2.1,3.8-5,9.6-6.5
									C474.4,247.3,479.6,247.8,480.1,249.8z"/>
								<path class="st18" d="M547.7,183.2c0,3.9-3.1,7-7,7c-3.9,0-7-3.1-7-7c0-3.9,3.1-7,7-7C544.6,176.3,547.7,179.4,547.7,183.2z
									"/>
								<path class="st18" d="M532.8,199.8c0,2.4-1.9,4.3-4.3,4.3c-2.4,0-4.3-1.9-4.3-4.3s1.9-4.3,4.3-4.3
									C530.9,195.5,532.8,197.4,532.8,199.8z"/>
								<path class="st10" d="M573.8,199.1c0,6.3-5.1,11.3-11.3,11.3c-6.3,0-11.3-5.1-11.3-11.3c0-6.3,5.1-11.3,11.3-11.3
									C568.7,187.7,573.8,192.8,573.8,199.1z"/>
								<path class="st10" d="M538,288.5l-5.6-15.9c0,0-7.3-2.4-15.8-2.4c-8.5,0-15.8,2.4-15.8,2.4l-5.6,15.9c-1,3.9,2,7.7,6,7.7
									h30.7C536,296.2,538.9,292.4,538,288.5z"/>
								<path class="st23" d="M524.4,249.7v-22.5h-15.5v22.5l-8,23h31.6L524.4,249.7z"/>
								<path class="st3" d="M530.6,279.6c0,0.9-0.7,1.6-1.6,1.6s-1.6-0.7-1.6-1.6s0.7-1.6,1.6-1.6S530.6,278.8,530.6,279.6z"/>
								<path class="st3" d="M527.5,285.1c0,1.3-1,2.3-2.3,2.3c-1.3,0-2.3-1-2.3-2.3s1-2.3,2.3-2.3
									C526.5,282.7,527.5,283.8,527.5,285.1z"/>
								<path class="st24" d="M512.3,223.1h8.5v19.4h-8.5V223.1z"/>
								<path class="st23" d="M525.1,229.2h-16.9c-0.7,0-1.2-0.6-1.2-1.2v-0.6c0-0.7,0.6-1.2,1.2-1.2h16.9c0.7,0,1.2,0.6,1.2,1.2
									v0.6C526.3,228.6,525.7,229.2,525.1,229.2z"/>
								<path class="st24" d="M538.4,273.2C538.4,273.2,538.4,273.2,538.4,273.2L538.4,273.2c0,13,10.4,23.4,23.3,23.4l0,0
									c12.9,0,23.3-10.4,23.3-23.3l0,0c0,0,0-0.1,0-0.1c0,0-13.2-2.3-23.3-2.3S538.4,273.2,538.4,273.2z"/>
								<path class="st23" d="M591.6,246.7l-1.2-1.2c-1.9-1.9-5.1-1.9-7,0l-8.5,8.5c-1.7-1.1-3.5-2.1-5.4-2.8v-23.9h-15.5v23.9
									c-9,3.2-15.5,11.8-15.5,21.9H585c0-3.7-0.9-7.2-2.4-10.3l9.1-9.1C593.5,251.8,593.5,248.7,591.6,246.7z"/>
								<path class="st24" d="M591.9,240.7l4.5,4.5l-11.4,11.4l-4.5-4.5L591.9,240.7z"/>
								<path class="st23" d="M594.3,251.8l-9-9c-0.4-0.4-0.4-1,0-1.3l0.3-0.3c0.4-0.4,1-0.4,1.3,0l9,9c0.4,0.4,0.4,1,0,1.3
									l-0.3,0.3C595.3,252.2,594.7,252.2,594.3,251.8z"/>
								<path class="st3" d="M557.9,277.8c0,0.9-0.7,1.6-1.6,1.6s-1.6-0.7-1.6-1.6c0-0.9,0.7-1.6,1.6-1.6S557.9,276.9,557.9,277.8z"
									/>
								<path class="st3" d="M555.2,286.1c0,1.1-0.9,1.9-1.9,1.9c-1.1,0-1.9-0.9-1.9-1.9c0-1.1,0.9-1.9,1.9-1.9
									C554.3,284.1,555.2,285,555.2,286.1z"/>
								<path class="st3" d="M571.6,279.2c0,1.3-1,2.3-2.3,2.3s-2.3-1-2.3-2.3c0-1.3,1-2.3,2.3-2.3S571.6,277.9,571.6,279.2z"/>
								<path class="st24" d="M557.3,223.6h8.5V243h-8.5V223.6z"/>
							</g>
						</g>
					</g>
				</g>
			</g>
		</g> </a>
		
			<linearGradient id="SVGID_19_" gradientUnits="userSpaceOnUse" x1="941.0186" y1="437.9577" x2="649.0426" y2="174.3337" gradientTransform="matrix(1 0 0 -1 0 722)">
			<stop  offset="0" style="stop-color:#7D00FF"/>
			<stop  offset="0.46" style="stop-color:#6800FE"/>
			<stop  offset="1" style="stop-color:#4300FC"/>
		</linearGradient>
		<path class="st25" d="M903.7,566.5H694.3c-15.4,0-27.8-12.5-27.8-27.8V273.5h265v265.2C931.5,554,919,566.5,903.7,566.5z"/>
		
			<linearGradient id="SVGID_20_" gradientUnits="userSpaceOnUse" x1="943.1469" y1="436.1011" x2="651.1709" y2="172.4771" gradientTransform="matrix(1 0 0 -1 0 722)">
			<stop  offset="0" style="stop-color:#7D00FF"/>
			<stop  offset="0.46" style="stop-color:#6800FE"/>
			<stop  offset="1" style="stop-color:#4300FC"/>
		</linearGradient>
		<rect x="674" y="273" class="st26" width="249" height="287"/>
		<text transform="matrix(1 0 0 1 716.141 424)" class="st3 st4 st5">MONITORING</text>
		<g>
			<defs>
				<rect id="SVGID_21_" x="646" y="49" width="301" height="301"/>
			</defs>
			<clipPath id="SVGID_22_">
				<use xlink:href="#SVGID_21_"  style="overflow:visible;"/>
			</clipPath>
			<g class="st27">
				<g>
					<defs>
						<rect id="SVGID_23_" x="646" y="49" width="301" height="301"/>
					</defs>
					<clipPath id="SVGID_24_">
						<use xlink:href="#SVGID_23_"  style="overflow:visible;"/>
					</clipPath>
					<g class="st28">
						<g>
							<defs>
								<rect id="SVGID_25_" x="646" y="49" width="301" height="301"/>
							</defs>
							<clipPath id="SVGID_26_">
								<use xlink:href="#SVGID_25_"  style="overflow:visible;"/>
							</clipPath>
							<g class="st29">
								<path class="st10" d="M671.5,196.9l68-13.3l17.9,91.7l-68,13.3L671.5,196.9z"/>
								<path class="st22" d="M712.6,201.2h69.3v93.4h-69.3V201.2z"/>
								<path class="st30" d="M772,280.1h-49.5v-0.3H772V280.1z M772,276.9h-49.5v0.3H772V276.9z M772,274.1h-49.5v0.3H772V274.1z
									 M772,271.2h-49.5v0.3H772V271.2z M772,268.3h-49.5v0.3H772V268.3z M772,265.4h-49.5v0.3H772V265.4z M772,262.5h-49.5v0.3
									H772V262.5z M772,259.6h-49.5v0.3H772V259.6z M772,256.8h-49.5v0.3H772V256.8z M772,253.9h-49.5v0.3H772V253.9z M772,251
									h-49.5v0.3H772V251z M772,248.1h-49.5v0.3H772V248.1z M772,245.2h-49.5v0.3H772V245.2z M772,242.3h-49.5v0.3H772V242.3z
									 M772,239.4h-49.5v0.3H772V239.4z M772,236.6h-49.5v0.3H772V236.6z M772,233.7h-49.5v0.3H772V233.7z M772,230.8h-49.5v0.3
									H772V230.8z M772,227.9h-49.5v0.3H772V227.9z M772,225h-49.5v0.3H772V225z M772,222.1h-49.5v0.3H772V222.1z M772,219.3
									h-49.5v0.3H772V219.3z M772,216.4h-49.5v0.3H772V216.4z"/>
								<path class="st30" d="M923.3,209.7c-1.2-2.6-9.3-1.5-21.6,0.4c-8.4,1.3-17.9,2.8-18.8,0.9c-0.2-0.4,0-1.3,2-3.1
									c1.2-1.1,1.6-2.3,1.2-3.5c-1.7-4.3-15-7.1-21.4-7.1H863v-1.9h-10.3v4.5H863v-2h1.7c7.2,0,19.3,3,20.8,6.7
									c0.4,0.9,0,1.8-1,2.8c-1.9,1.7-2.5,2.9-2.1,3.8c1,2.1,8,1.2,19.4-0.6c9.3-1.5,19.9-3.1,21-0.7c0.3,0.7-0.1,2.2-3.8,5.3
									c-16,13.6-12.7,25.8-8.4,41.2c1.3,4.8,2.7,9.7,3.6,15.2c2,11.5-3.2,18.1-7.9,21.6c-8.2,6-20.4,7-23.9,5.2
									c-0.4-0.2-0.8-0.5-0.8-0.9v-2.8h1.3v-7.5h-3.1v7.5h1.3v2.8c0,0.4,0.2,1,1.1,1.4c1.1,0.5,2.9,0.9,5.3,0.9
									c5.4,0,13.2-1.7,19.2-6.2c4.9-3.6,10.2-10.4,8.2-22.2c-1-5.5-2.3-10.5-3.6-15.3c-2.1-7.8-4-14.5-3.4-21.1
									c0.7-7.2,4.4-13.4,11.6-19.5C922.7,212.9,923.9,211,923.3,209.7z"/>
								<path class="st10" d="M851.6,282.9l-62,9.5l-0.7-4.3l62-9.5l6.8,1.2L851.6,282.9z"/>
								<path class="st3" d="M799,287.6l37.8-5.8l0,0.3l-37.8,5.8L799,287.6z"/>
								<path class="st21" d="M703.1,263.5h-29.8c-1.4,0-2.5-1.1-2.5-2.5v-62.4c0-1.4,1.1-2.5,2.5-2.5h29.8c1.4,0,2.5,1.1,2.5,2.5
									v62.4C705.6,262.3,704.5,263.5,703.1,263.5z"/>
								<path class="st9" d="M678.4,231.5c0,1-0.8,1.8-1.8,1.8s-1.8-0.8-1.8-1.8c0-1,0.8-1.8,1.8-1.8S678.4,230.5,678.4,231.5z"/>
								<path class="st9" d="M684.3,231.5c0,1-0.8,1.8-1.8,1.8c-1,0-1.8-0.8-1.8-1.8c0-1,0.8-1.8,1.8-1.8
									C683.5,229.7,684.3,230.5,684.3,231.5z"/>
								<path class="st30" d="M677.4,221.5c0,0.7-0.5,1.2-1.2,1.2c-0.7,0-1.2-0.5-1.2-1.2c0-0.7,0.5-1.2,1.2-1.2
									C676.9,220.3,677.4,220.8,677.4,221.5z"/>
								<path class="st9" d="M683.3,221.5c0,0.7-0.5,1.2-1.2,1.2c-0.7,0-1.2-0.5-1.2-1.2c0-0.7,0.5-1.2,1.2-1.2
									C682.8,220.3,683.3,220.8,683.3,221.5z"/>
								<path class="st9" d="M690.2,231.5c0,1-0.8,1.8-1.8,1.8c-1,0-1.8-0.8-1.8-1.8c0-1,0.8-1.8,1.8-1.8
									C689.4,229.7,690.2,230.5,690.2,231.5z"/>
								<path class="st9" d="M696.1,231.5c0,1-0.8,1.8-1.8,1.8c-1,0-1.8-0.8-1.8-1.8c0-1,0.8-1.8,1.8-1.8
									C695.3,229.7,696.1,230.5,696.1,231.5z"/>
								<path class="st9" d="M702,231.5c0,1-0.8,1.8-1.8,1.8c-1,0-1.8-0.8-1.8-1.8c0-1,0.8-1.8,1.8-1.8
									C701.2,229.7,702,230.5,702,231.5z"/>
								<path class="st30" d="M678.4,237.3c0,1-0.8,1.8-1.8,1.8s-1.8-0.8-1.8-1.8c0-1,0.8-1.8,1.8-1.8S678.4,236.3,678.4,237.3z"/>
								<path class="st9" d="M684.3,237.3c0,1-0.8,1.8-1.8,1.8c-1,0-1.8-0.8-1.8-1.8c0-1,0.8-1.8,1.8-1.8
									C683.5,235.5,684.3,236.3,684.3,237.3z"/>
								<path class="st9" d="M690.2,237.3c0,1-0.8,1.8-1.8,1.8c-1,0-1.8-0.8-1.8-1.8c0-1,0.8-1.8,1.8-1.8
									C689.4,235.5,690.2,236.3,690.2,237.3z"/>
								<path class="st9" d="M696.1,237.3c0,1-0.8,1.8-1.8,1.8c-1,0-1.8-0.8-1.8-1.8c0-1,0.8-1.8,1.8-1.8
									C695.3,235.5,696.1,236.3,696.1,237.3z"/>
								<path class="st30" d="M702,237.3c0,1-0.8,1.8-1.8,1.8c-1,0-1.8-0.8-1.8-1.8c0-1,0.8-1.8,1.8-1.8
									C701.2,235.5,702,236.3,702,237.3z"/>
								<path class="st30" d="M678.4,243.1c0,1-0.8,1.8-1.8,1.8s-1.8-0.8-1.8-1.8c0-1,0.8-1.8,1.8-1.8S678.4,242.1,678.4,243.1z"/>
								<path class="st9" d="M684.3,243.1c0,1-0.8,1.8-1.8,1.8c-1,0-1.8-0.8-1.8-1.8c0-1,0.8-1.8,1.8-1.8
									C683.5,241.2,684.3,242.1,684.3,243.1z"/>
								<path class="st9" d="M690.2,243.1c0,1-0.8,1.8-1.8,1.8c-1,0-1.8-0.8-1.8-1.8c0-1,0.8-1.8,1.8-1.8
									C689.4,241.2,690.2,242.1,690.2,243.1z"/>
								<path class="st9" d="M696.1,243.1c0,1-0.8,1.8-1.8,1.8c-1,0-1.8-0.8-1.8-1.8c0-1,0.8-1.8,1.8-1.8
									C695.3,241.2,696.1,242.1,696.1,243.1z"/>
								<path class="st30" d="M702,243.1c0,1-0.8,1.8-1.8,1.8c-1,0-1.8-0.8-1.8-1.8c0-1,0.8-1.8,1.8-1.8
									C701.2,241.2,702,242.1,702,243.1z"/>
								<path class="st30" d="M678.4,248.8c0,1-0.8,1.8-1.8,1.8s-1.8-0.8-1.8-1.8c0-1,0.8-1.8,1.8-1.8S678.4,247.8,678.4,248.8z"/>
								<path class="st9" d="M684.3,248.8c0,1-0.8,1.8-1.8,1.8c-1,0-1.8-0.8-1.8-1.8c0-1,0.8-1.8,1.8-1.8
									C683.5,247,684.3,247.8,684.3,248.8z"/>
								<path class="st9" d="M690.2,248.8c0,1-0.8,1.8-1.8,1.8c-1,0-1.8-0.8-1.8-1.8c0-1,0.8-1.8,1.8-1.8
									C689.4,247,690.2,247.8,690.2,248.8z"/>
								<path class="st9" d="M696.1,248.8c0,1-0.8,1.8-1.8,1.8c-1,0-1.8-0.8-1.8-1.8c0-1,0.8-1.8,1.8-1.8
									C695.3,247,696.1,247.8,696.1,248.8z"/>
								<path class="st30" d="M702,248.8c0,1-0.8,1.8-1.8,1.8c-1,0-1.8-0.8-1.8-1.8c0-1,0.8-1.8,1.8-1.8
									C701.2,247,702,247.8,702,248.8z"/>
								<path class="st30" d="M678.4,254.6c0,1-0.8,1.8-1.8,1.8s-1.8-0.8-1.8-1.8c0-1,0.8-1.8,1.8-1.8S678.4,253.6,678.4,254.6z"/>
								<path class="st9" d="M684.3,254.6c0,1-0.8,1.8-1.8,1.8c-1,0-1.8-0.8-1.8-1.8c0-1,0.8-1.8,1.8-1.8
									C683.5,252.8,684.3,253.6,684.3,254.6z"/>
								<path class="st30" d="M690.2,254.6c0,1-0.8,1.8-1.8,1.8c-1,0-1.8-0.8-1.8-1.8c0-1,0.8-1.8,1.8-1.8
									C689.4,252.8,690.2,253.6,690.2,254.6z"/>
								<path class="st10" d="M696.1,254.6c0,1-0.8,1.8-1.8,1.8c-1,0-1.8-0.8-1.8-1.8c0-1,0.8-1.8,1.8-1.8
									C695.3,252.8,696.1,253.6,696.1,254.6z"/>
								<path class="st30" d="M702,254.6c0,1-0.8,1.8-1.8,1.8c-1,0-1.8-0.8-1.8-1.8c0-1,0.8-1.8,1.8-1.8
									C701.2,252.8,702,253.6,702,254.6z"/>
								<path class="st30" d="M673.9,205.5H703V216h-29.1V205.5z"/>
								<path class="st30" d="M673.7,201.1h7.4v1.5h-7.4V201.1z"/>
								<path class="st21" d="M898.9,224.3c0-1.7-1.4-3.1-3.1-3.1h-28.6c-1.7,0-3.1,1.4-3.1,3.1v61.5c0,1.7,1.4,3.1,3.1,3.1h28.6
									c1.7,0,3.1-1.4,3.1-3.1V224.3z"/>
								<path class="st18" d="M865.7,224.6h31.4v60.3h-31.4V224.6z"/>
								<path class="st19" d="M865.7,265.1v10.9v8.8h31.4v-51.2L865.7,265.1z"/>
								<path class="st3" d="M889.4,262.2h-16.3c-0.5,0-0.9-0.4-0.9-0.9c0-0.5,0.4-0.9,0.9-0.9h16.3c0.5,0,0.9,0.4,0.9,0.9
									C890.3,261.8,889.9,262.2,889.4,262.2z"/>
								<path class="st3" d="M889.4,266.6h-16.3c-0.5,0-0.9-0.4-0.9-0.9c0-0.5,0.4-0.9,0.9-0.9h16.3c0.5,0,0.9,0.4,0.9,0.9
									C890.3,266.2,889.9,266.6,889.4,266.6z"/>
								<path class="st9" d="M852.6,184.8h3.8v8.8h-3.8V184.8z"/>
								<path class="st9" d="M850.4,263.5h-126c-2.1,0-3.8-1.7-3.8-3.8v-86.5c0-2.1,1.7-3.8,3.8-3.8h126c2.1,0,3.8,1.7,3.8,3.8v86.5
									C854.1,261.8,852.5,263.5,850.4,263.5z"/>
								<path class="st20" d="M740.3,168.1h94.4v9.1h-94.4V168.1z"/>
								<path class="st21" d="M807.7,259.1h-40.8c-1.1,0-1.9-0.9-1.9-1.9v-22.5c0-1.1,0.9-1.9,1.9-1.9h40.8c1.1,0,1.9,0.9,1.9,1.9
									v22.5C809.7,258.2,808.8,259.1,807.7,259.1z"/>
								<path class="st21" d="M845.4,228.7l-115.9,0c-1.3,0-2.4-1.1-2.4-2.4v-47.4c0-1.3,1.1-2.4,2.4-2.4l115.9,0
									c1.3,0,2.4,1.1,2.4,2.4v47.4C847.8,227.6,846.8,228.7,845.4,228.7z"/>
								<path class="st20" d="M740.4,184.2h-9.7c-0.4,0-0.8,0.3-0.8,0.8v5.4c0,0.4,0.3,0.8,0.8,0.8h9.7c0.4,0,0.8-0.3,0.8-0.8V185
									C741.1,184.6,740.8,184.2,740.4,184.2z"/>
								<path class="st20" d="M742.6,190.3V185c0-0.4,0.3-0.8,0.8-0.8h5.4c0.4,0,0.8,0.3,0.8,0.8v5.4c0,0.4-0.3,0.8-0.8,0.8h-5.4
									C742.9,191.1,742.6,190.8,742.6,190.3z"/>
								<path class="st20" d="M750.9,190.3V185c0-0.4,0.3-0.8,0.8-0.8h5.4c0.4,0,0.8,0.3,0.8,0.8v5.4c0,0.4-0.3,0.8-0.8,0.8h-5.4
									C751.3,191.1,750.9,190.8,750.9,190.3z"/>
								<path class="st20" d="M759.2,190.3V185c0-0.4,0.3-0.8,0.8-0.8h5.4c0.4,0,0.8,0.3,0.8,0.8v5.4c0,0.4-0.3,0.8-0.8,0.8H760
									C759.6,191.1,759.2,190.8,759.2,190.3z"/>
								<path class="st20" d="M767.6,190.3V185c0-0.4,0.3-0.8,0.8-0.8h5.4c0.4,0,0.8,0.3,0.8,0.8v5.4c0,0.4-0.3,0.8-0.8,0.8h-5.4
									C767.9,191.1,767.6,190.8,767.6,190.3z"/>
								<path class="st20" d="M775.9,190.3V185c0-0.4,0.3-0.8,0.8-0.8h5.4c0.4,0,0.8,0.3,0.8,0.8v5.4c0,0.4-0.3,0.8-0.8,0.8h-5.4
									C776.2,191.1,775.9,190.8,775.9,190.3z"/>
								<path class="st20" d="M784.2,190.3V185c0-0.4,0.3-0.8,0.8-0.8h5.4c0.4,0,0.8,0.3,0.8,0.8v5.4c0,0.4-0.3,0.8-0.8,0.8H785
									C784.6,191.1,784.2,190.8,784.2,190.3z"/>
								<path class="st20" d="M792.6,190.3V185c0-0.4,0.3-0.8,0.8-0.8h5.4c0.4,0,0.8,0.3,0.8,0.8v5.4c0,0.4-0.3,0.8-0.8,0.8h-5.4
									C792.9,191.1,792.6,190.8,792.6,190.3z"/>
								<path class="st20" d="M800.9,190.3V185c0-0.4,0.3-0.8,0.8-0.8h5.4c0.4,0,0.8,0.3,0.8,0.8v5.4c0,0.4-0.3,0.8-0.8,0.8h-5.4
									C801.2,191.1,800.9,190.8,800.9,190.3z"/>
								<path class="st20" d="M809.2,190.3V185c0-0.4,0.3-0.8,0.8-0.8h5.4c0.4,0,0.8,0.3,0.8,0.8v5.4c0,0.4-0.3,0.8-0.8,0.8H810
									C809.6,191.1,809.2,190.8,809.2,190.3z"/>
								<path class="st20" d="M817.5,190.3V185c0-0.4,0.3-0.8,0.8-0.8h5.4c0.4,0,0.8,0.3,0.8,0.8v5.4c0,0.4-0.3,0.8-0.8,0.8h-5.4
									C817.9,191.1,817.5,190.8,817.5,190.3z"/>
								<path class="st20" d="M825.9,190.3V185c0-0.4,0.3-0.8,0.8-0.8h5.4c0.4,0,0.8,0.3,0.8,0.8v5.4c0,0.4-0.3,0.8-0.8,0.8h-5.4
									C826.2,191.1,825.9,190.8,825.9,190.3z"/>
								<path class="st20" d="M736.1,199.9h-5.4c-0.4,0-0.8-0.3-0.8-0.8v-5.4c0-0.4,0.3-0.8,0.8-0.8h5.4c0.4,0,0.8,0.3,0.8,0.8v5.4
									C736.8,199.6,736.5,199.9,736.1,199.9z"/>
								<path class="st20" d="M738.3,199.1v-5.4c0-0.4,0.3-0.8,0.8-0.8h5.4c0.4,0,0.8,0.3,0.8,0.8v5.4c0,0.4-0.3,0.8-0.8,0.8H739
									C738.6,199.9,738.3,199.6,738.3,199.1z"/>
								<path class="st20" d="M746.6,199.1v-5.4c0-0.4,0.3-0.8,0.8-0.8h5.4c0.4,0,0.8,0.3,0.8,0.8v5.4c0,0.4-0.3,0.8-0.8,0.8h-5.4
									C746.9,199.9,746.6,199.6,746.6,199.1z"/>
								<path class="st20" d="M754.9,199.1v-5.4c0-0.4,0.3-0.8,0.8-0.8h5.4c0.4,0,0.8,0.3,0.8,0.8v5.4c0,0.4-0.3,0.8-0.8,0.8h-5.4
									C755.3,199.9,754.9,199.6,754.9,199.1z"/>
								<path class="st20" d="M763.3,199.1v-5.4c0-0.4,0.3-0.8,0.8-0.8h5.4c0.4,0,0.8,0.3,0.8,0.8v5.4c0,0.4-0.3,0.8-0.8,0.8H764
									C763.6,199.9,763.3,199.6,763.3,199.1z"/>
								<path class="st20" d="M771.6,199.1v-5.4c0-0.4,0.3-0.8,0.8-0.8h5.4c0.4,0,0.8,0.3,0.8,0.8v5.4c0,0.4-0.3,0.8-0.8,0.8h-5.4
									C771.9,199.9,771.6,199.6,771.6,199.1z"/>
								<path class="st20" d="M779.9,199.1v-5.4c0-0.4,0.3-0.8,0.8-0.8h5.4c0.4,0,0.8,0.3,0.8,0.8v5.4c0,0.4-0.3,0.8-0.8,0.8h-5.4
									C780.3,199.9,779.9,199.6,779.9,199.1z"/>
								<path class="st20" d="M788.2,199.1v-5.4c0-0.4,0.3-0.8,0.8-0.8h5.4c0.4,0,0.8,0.3,0.8,0.8v5.4c0,0.4-0.3,0.8-0.8,0.8H789
									C788.6,199.9,788.2,199.6,788.2,199.1z"/>
								<path class="st20" d="M796.6,199.1v-5.4c0-0.4,0.3-0.8,0.8-0.8h5.4c0.4,0,0.8,0.3,0.8,0.8v5.4c0,0.4-0.3,0.8-0.8,0.8h-5.4
									C796.9,199.9,796.6,199.6,796.6,199.1z"/>
								<path class="st20" d="M804.9,199.1v-5.4c0-0.4,0.3-0.8,0.8-0.8h5.4c0.4,0,0.8,0.3,0.8,0.8v5.4c0,0.4-0.3,0.8-0.8,0.8h-5.4
									C805.2,199.9,804.9,199.6,804.9,199.1z"/>
								<path class="st20" d="M813.2,199.1v-5.4c0-0.4,0.3-0.8,0.8-0.8h5.4c0.4,0,0.8,0.3,0.8,0.8v5.4c0,0.4-0.3,0.8-0.8,0.8H814
									C813.6,199.9,813.2,199.6,813.2,199.1z"/>
								<path class="st20" d="M821.6,199.1v-5.4c0-0.4,0.3-0.8,0.8-0.8h5.4c0.4,0,0.8,0.3,0.8,0.8v5.4c0,0.4-0.3,0.8-0.8,0.8h-5.4
									C821.9,199.9,821.6,199.6,821.6,199.1z"/>
								<path class="st20" d="M829.9,199.1v-5.4c0-0.4,0.3-0.8,0.8-0.8h5.4c0.4,0,0.8,0.3,0.8,0.8v5.4c0,0.4-0.3,0.8-0.8,0.8h-5.4
									C830.2,199.9,829.9,199.6,829.9,199.1z"/>
								<path class="st20" d="M844.3,199.9H839c-0.4,0-0.8-0.3-0.8-0.8v-5.4c0-0.4,0.3-0.8,0.8-0.8h5.4c0.4,0,0.8,0.3,0.8,0.8v5.4
									C845.1,199.6,844.8,199.9,844.3,199.9z"/>
								<path class="st20" d="M736.1,182.3h-5.4c-0.4,0-0.8-0.3-0.8-0.8v-1.9c0-0.4,0.3-0.8,0.8-0.8h5.4c0.4,0,0.8,0.3,0.8,0.8v1.9
									C736.8,182,736.5,182.3,736.1,182.3z"/>
								<path class="st20" d="M738.3,181.5v-1.9c0-0.4,0.3-0.8,0.8-0.8h5.4c0.4,0,0.8,0.3,0.8,0.8v1.9c0,0.4-0.3,0.8-0.8,0.8H739
									C738.6,182.3,738.3,182,738.3,181.5z"/>
								<path class="st20" d="M746.6,181.5v-1.9c0-0.4,0.3-0.8,0.8-0.8h5.4c0.4,0,0.8,0.3,0.8,0.8v1.9c0,0.4-0.3,0.8-0.8,0.8h-5.4
									C746.9,182.3,746.6,182,746.6,181.5z"/>
								<path class="st20" d="M754.9,181.5v-1.9c0-0.4,0.3-0.8,0.8-0.8h5.4c0.4,0,0.8,0.3,0.8,0.8v1.9c0,0.4-0.3,0.8-0.8,0.8h-5.4
									C755.3,182.3,754.9,182,754.9,181.5z"/>
								<path class="st20" d="M763.3,181.5v-1.9c0-0.4,0.3-0.8,0.8-0.8h5.4c0.4,0,0.8,0.3,0.8,0.8v1.9c0,0.4-0.3,0.8-0.8,0.8H764
									C763.6,182.3,763.3,182,763.3,181.5z"/>
								<path class="st20" d="M771.6,181.5v-1.9c0-0.4,0.3-0.8,0.8-0.8h5.4c0.4,0,0.8,0.3,0.8,0.8v1.9c0,0.4-0.3,0.8-0.8,0.8h-5.4
									C771.9,182.3,771.6,182,771.6,181.5z"/>
								<path class="st20" d="M779.9,181.5v-1.9c0-0.4,0.3-0.8,0.8-0.8h5.4c0.4,0,0.8,0.3,0.8,0.8v1.9c0,0.4-0.3,0.8-0.8,0.8h-5.4
									C780.3,182.3,779.9,182,779.9,181.5z"/>
								<path class="st20" d="M788.2,181.5v-1.9c0-0.4,0.3-0.8,0.8-0.8h5.4c0.4,0,0.8,0.3,0.8,0.8v1.9c0,0.4-0.3,0.8-0.8,0.8H789
									C788.6,182.3,788.2,182,788.2,181.5z"/>
								<path class="st20" d="M796.6,181.5v-1.9c0-0.4,0.3-0.8,0.8-0.8h5.4c0.4,0,0.8,0.3,0.8,0.8v1.9c0,0.4-0.3,0.8-0.8,0.8h-5.4
									C796.9,182.3,796.6,182,796.6,181.5z"/>
								<path class="st20" d="M804.9,181.5v-1.9c0-0.4,0.3-0.8,0.8-0.8h5.4c0.4,0,0.8,0.3,0.8,0.8v1.9c0,0.4-0.3,0.8-0.8,0.8h-5.4
									C805.2,182.3,804.9,182,804.9,181.5z"/>
								<path class="st20" d="M813.2,181.5v-1.9c0-0.4,0.3-0.8,0.8-0.8h5.4c0.4,0,0.8,0.3,0.8,0.8v1.9c0,0.4-0.3,0.8-0.8,0.8H814
									C813.6,182.3,813.2,182,813.2,181.5z"/>
								<path class="st20" d="M821.6,181.5v-1.9c0-0.4,0.3-0.8,0.8-0.8h5.4c0.4,0,0.8,0.3,0.8,0.8v1.9c0,0.4-0.3,0.8-0.8,0.8h-5.4
									C821.9,182.3,821.6,182,821.6,181.5z"/>
								<path class="st20" d="M829.9,181.5v-1.9c0-0.4,0.3-0.8,0.8-0.8h5.4c0.4,0,0.8,0.3,0.8,0.8v1.9c0,0.4-0.3,0.8-0.8,0.8h-5.4
									C830.2,182.3,829.9,182,829.9,181.5z"/>
								<path class="st20" d="M844.3,182.3H839c-0.4,0-0.8-0.3-0.8-0.8v-1.9c0-0.4,0.3-0.8,0.8-0.8h5.4c0.4,0,0.8,0.3,0.8,0.8v1.9
									C845.1,182,844.8,182.3,844.3,182.3z"/>
								<path class="st20" d="M740.4,201.8h-9.7c-0.4,0-0.8,0.3-0.8,0.8v5.4c0,0.4,0.3,0.8,0.8,0.8h9.7c0.4,0,0.8-0.3,0.8-0.8v-5.4
									C741.1,202.2,740.8,201.8,740.4,201.8z"/>
								<path class="st20" d="M844.5,201.8h-9.7c-0.4,0-0.8,0.3-0.8,0.8v5.4c0,0.4,0.3,0.8,0.8,0.8h9.7c0.4,0,0.8-0.3,0.8-0.8v-5.4
									C845.2,202.2,844.9,201.8,844.5,201.8z"/>
								<path class="st20" d="M844.5,184.2h-9.7c-0.4,0-0.8,0.3-0.8,0.8v5.4c0,0.4,0.3,0.8,0.8,0.8h9.7c0.4,0,0.8-0.3,0.8-0.8V185
									C845.2,184.6,844.9,184.2,844.5,184.2z"/>
								<path class="st20" d="M742.6,207.9v-5.4c0-0.4,0.3-0.8,0.8-0.8h5.4c0.4,0,0.8,0.3,0.8,0.8v5.4c0,0.4-0.3,0.8-0.8,0.8h-5.4
									C742.9,208.7,742.6,208.4,742.6,207.9z"/>
								<path class="st20" d="M750.9,207.9v-5.4c0-0.4,0.3-0.8,0.8-0.8h5.4c0.4,0,0.8,0.3,0.8,0.8v5.4c0,0.4-0.3,0.8-0.8,0.8h-5.4
									C751.3,208.7,750.9,208.4,750.9,207.9z"/>
								<path class="st20" d="M759.2,207.9v-5.4c0-0.4,0.3-0.8,0.8-0.8h5.4c0.4,0,0.8,0.3,0.8,0.8v5.4c0,0.4-0.3,0.8-0.8,0.8H760
									C759.6,208.7,759.2,208.4,759.2,207.9z"/>
								<path class="st20" d="M767.6,207.9v-5.4c0-0.4,0.3-0.8,0.8-0.8h5.4c0.4,0,0.8,0.3,0.8,0.8v5.4c0,0.4-0.3,0.8-0.8,0.8h-5.4
									C767.9,208.7,767.6,208.4,767.6,207.9z"/>
								<path class="st20" d="M775.9,207.9v-5.4c0-0.4,0.3-0.8,0.8-0.8h5.4c0.4,0,0.8,0.3,0.8,0.8v5.4c0,0.4-0.3,0.8-0.8,0.8h-5.4
									C776.2,208.7,775.9,208.4,775.9,207.9z"/>
								<path class="st20" d="M784.2,207.9v-5.4c0-0.4,0.3-0.8,0.8-0.8h5.4c0.4,0,0.8,0.3,0.8,0.8v5.4c0,0.4-0.3,0.8-0.8,0.8H785
									C784.6,208.7,784.2,208.4,784.2,207.9z"/>
								<path class="st20" d="M792.6,207.9v-5.4c0-0.4,0.3-0.8,0.8-0.8h5.4c0.4,0,0.8,0.3,0.8,0.8v5.4c0,0.4-0.3,0.8-0.8,0.8h-5.4
									C792.9,208.7,792.6,208.4,792.6,207.9z"/>
								<path class="st20" d="M800.9,207.9v-5.4c0-0.4,0.3-0.8,0.8-0.8h5.4c0.4,0,0.8,0.3,0.8,0.8v5.4c0,0.4-0.3,0.8-0.8,0.8h-5.4
									C801.2,208.7,800.9,208.4,800.9,207.9z"/>
								<path class="st20" d="M809.2,207.9v-5.4c0-0.4,0.3-0.8,0.8-0.8h5.4c0.4,0,0.8,0.3,0.8,0.8v5.4c0,0.4-0.3,0.8-0.8,0.8H810
									C809.6,208.7,809.2,208.4,809.2,207.9z"/>
								<path class="st20" d="M817.5,207.9v-5.4c0-0.4,0.3-0.8,0.8-0.8h5.4c0.4,0,0.8,0.3,0.8,0.8v5.4c0,0.4-0.3,0.8-0.8,0.8h-5.4
									C817.9,208.7,817.5,208.4,817.5,207.9z"/>
								<path class="st20" d="M825.9,207.9v-5.4c0-0.4,0.3-0.8,0.8-0.8h5.4c0.4,0,0.8,0.3,0.8,0.8v5.4c0,0.4-0.3,0.8-0.8,0.8h-5.4
									C826.2,208.7,825.9,208.4,825.9,207.9z"/>
								<path class="st20" d="M744.5,217.5h-13.8c-0.4,0-0.8-0.3-0.8-0.8v-5.4c0-0.4,0.3-0.8,0.8-0.8h13.8c0.4,0,0.8,0.3,0.8,0.8
									v5.4C745.2,217.2,744.9,217.5,744.5,217.5z"/>
								<path class="st20" d="M746.6,216.7v-5.4c0-0.4,0.3-0.8,0.8-0.8h5.4c0.4,0,0.8,0.3,0.8,0.8v5.4c0,0.4-0.3,0.8-0.8,0.8h-5.4
									C746.9,217.5,746.6,217.2,746.6,216.7z"/>
								<path class="st20" d="M754.9,216.7v-5.4c0-0.4,0.3-0.8,0.8-0.8h5.4c0.4,0,0.8,0.3,0.8,0.8v5.4c0,0.4-0.3,0.8-0.8,0.8h-5.4
									C755.3,217.5,754.9,217.2,754.9,216.7z"/>
								<path class="st20" d="M763.3,216.7v-5.4c0-0.4,0.3-0.8,0.8-0.8h5.4c0.4,0,0.8,0.3,0.8,0.8v5.4c0,0.4-0.3,0.8-0.8,0.8H764
									C763.6,217.5,763.3,217.2,763.3,216.7z"/>
								<path class="st20" d="M771.6,216.7v-5.4c0-0.4,0.3-0.8,0.8-0.8h5.4c0.4,0,0.8,0.3,0.8,0.8v5.4c0,0.4-0.3,0.8-0.8,0.8h-5.4
									C771.9,217.5,771.6,217.2,771.6,216.7z"/>
								<path class="st20" d="M779.9,216.7v-5.4c0-0.4,0.3-0.8,0.8-0.8h5.4c0.4,0,0.8,0.3,0.8,0.8v5.4c0,0.4-0.3,0.8-0.8,0.8h-5.4
									C780.3,217.5,779.9,217.2,779.9,216.7z"/>
								<path class="st20" d="M788.2,216.7v-5.4c0-0.4,0.3-0.8,0.8-0.8h5.4c0.4,0,0.8,0.3,0.8,0.8v5.4c0,0.4-0.3,0.8-0.8,0.8H789
									C788.6,217.5,788.2,217.2,788.2,216.7z"/>
								<path class="st20" d="M796.6,216.7v-5.4c0-0.4,0.3-0.8,0.8-0.8h5.4c0.4,0,0.8,0.3,0.8,0.8v5.4c0,0.4-0.3,0.8-0.8,0.8h-5.4
									C796.9,217.5,796.6,217.2,796.6,216.7z"/>
								<path class="st20" d="M804.9,216.7v-5.4c0-0.4,0.3-0.8,0.8-0.8h5.4c0.4,0,0.8,0.3,0.8,0.8v5.4c0,0.4-0.3,0.8-0.8,0.8h-5.4
									C805.2,217.5,804.9,217.2,804.9,216.7z"/>
								<path class="st20" d="M813.2,216.7v-5.4c0-0.4,0.3-0.8,0.8-0.8h5.4c0.4,0,0.8,0.3,0.8,0.8v5.4c0,0.4-0.3,0.8-0.8,0.8H814
									C813.6,217.5,813.2,217.2,813.2,216.7z"/>
								<path class="st20" d="M821.6,216.7v-5.4c0-0.4,0.3-0.8,0.8-0.8h5.4c0.4,0,0.8,0.3,0.8,0.8v5.4c0,0.4-0.3,0.8-0.8,0.8h-5.4
									C821.9,217.5,821.6,217.2,821.6,216.7z"/>
								<path class="st20" d="M829.9,216.7v-5.4c0.3-0.3,0.5-0.5,0.8-0.8h13.7c0.3,0.3,0.5,0.5,0.8,0.8v5.4
									c-0.3,0.3-0.5,0.5-0.8,0.8h-13.7C830.4,217.2,830.2,217,829.9,216.7z"/>
								<path class="st20" d="M736.1,226.1h-5.4c-0.4,0-0.8-0.3-0.8-0.8V220c0-0.4,0.3-0.8,0.8-0.8h5.4c0.4,0,0.8,0.3,0.8,0.8v5.4
									C736.8,225.8,736.5,226.1,736.1,226.1z"/>
								<path class="st20" d="M738.3,225.4V220c0-0.4,0.3-0.8,0.8-0.8h5.4c0.4,0,0.8,0.3,0.8,0.8v5.4c0,0.4-0.3,0.8-0.8,0.8H739
									C738.6,226.1,738.3,225.8,738.3,225.4z"/>
								<path class="st20" d="M746.6,225.4V220c0-0.4,0.3-0.8,0.8-0.8h5.4c0.4,0,0.8,0.3,0.8,0.8v5.4c0,0.4-0.3,0.8-0.8,0.8h-5.4
									C746.9,226.1,746.6,225.8,746.6,225.4z"/>
								<path class="st20" d="M754.9,225.4V220c0.4,0,0.8-0.3,0.8-0.8h5.4c0,0.4,0.3,0.8,0.8,0.8v5.4c-0.4,0-0.8,0.3-0.8,0.8h-5.4
									C755.7,225.7,755.3,225.4,754.9,225.4z"/>
								<path class="st20" d="M763.1,225.4V220c0-0.4,0.3-0.8,0.8-0.8h47.2c0.4,0,0.8,0.3,0.8,0.8v5.4c0,0.4-0.3,0.8-0.8,0.8h-47.2
									C763.4,226.1,763.1,225.8,763.1,225.4z"/>
								<path class="st20" d="M813.2,225.4V220c0-0.4,0.3-0.8,0.8-0.8h5.4c0.4,0,0.8,0.3,0.8,0.8v5.4c0,0.4-0.3,0.8-0.8,0.8H814
									C813.6,226.1,813.2,225.8,813.2,225.4z"/>
								<path class="st20" d="M821.6,225.4V220c0-0.4,0.3-0.8,0.8-0.8h5.4c0.4,0,0.8,0.3,0.8,0.8v5.4c0,0.4-0.3,0.8-0.8,0.8h-5.4
									C821.9,226.1,821.6,225.8,821.6,225.4z"/>
								<path class="st20" d="M838.2,225.4v-5.4c0-0.4,0.3-0.8,0.8-0.8h5.4c0.4,0,0.8,0.3,0.8,0.8v5.4c0,0.4-0.3,0.8-0.8,0.8h-5.4
									C838.5,226.2,838.2,225.8,838.2,225.4z"/>
								<path class="st20" d="M836.2,222.4h-5.4c-0.4,0-0.8-0.3-0.8-0.8V220c0-0.4,0.3-0.8,0.8-0.8h5.4c0.4,0,0.8,0.3,0.8,0.8v1.6
									C836.9,222,836.6,222.4,836.2,222.4z"/>
								<path class="st20" d="M836.2,226.2h-5.4c-0.4,0-0.8-0.3-0.8-0.8v-1.6c0-0.4,0.3-0.8,0.8-0.8h5.4c0.4,0,0.8,0.3,0.8,0.8v1.6
									C836.9,225.8,836.6,226.2,836.2,226.2z"/>
								<path class="st30" d="M708.3,110.6v-1.7c0-2.3,1.3-4.5,3.7-4.5h151c2.4,0,3.7,1.9,3.7,4.5v2L708.3,110.6z"/>
								<path class="st22" d="M724,165.2h47.4l50.2-50.2H713.8L724,165.2z"/>
								<path class="st18" d="M851.1,165l9.8-49.9h-40.4L770.6,165H851.1z"/>
								<path class="st20" d="M724.7,164.6l-10-49h106l8.6-8.6l-0.5-0.1H711.9c-2.4,0-4.2,2.2-3.7,4.5l11.8,55.2
									c0.4,1.7,1.9,3,3.7,3h43.1l4.9-4.9H724.7z"/>
								<path class="st21" d="M862.9,106.8h-34.1l-8.8,8.8h39.7l-9.6,49H771l-4.9,4.9h85c1.8,0,3.3-1.2,3.7-3l11.8-55.2
									C867.1,109,865.3,106.8,862.9,106.8z"/>
								<path class="st3" d="M804.3,144.7h-32.6c-0.5,0-0.9-0.4-0.9-0.9c0-0.5,0.4-0.9,0.9-0.9h32.6c0.5,0,0.9,0.4,0.9,0.9
									C805.2,144.3,804.8,144.7,804.3,144.7z"/>
							</g>
						</g>
					</g>
				</g>
			</g>
		</g>
		
			<linearGradient id="SVGID_27_" gradientUnits="userSpaceOnUse" x1="1247.0187" y1="437.9576" x2="955.0407" y2="174.3336" gradientTransform="matrix(1 0 0 -1 0 722)">
			<stop  offset="0" style="stop-color:#7D00FF"/>
			<stop  offset="0.46" style="stop-color:#6800FE"/>
			<stop  offset="1" style="stop-color:#4300FC"/>
		</linearGradient>
		<path class="st31" d="M1209.7,566.5h-209.3c-15.4,0-27.8-12.5-27.8-27.8V273.5h265v265.2C1237.5,554,1225,566.5,1209.7,566.5z"/>
		
			<linearGradient id="SVGID_28_" gradientUnits="userSpaceOnUse" x1="1249.1484" y1="436.1016" x2="957.1705" y2="172.4776" gradientTransform="matrix(1 0 0 -1 0 722)">
			<stop  offset="0" style="stop-color:#7D00FF"/>
			<stop  offset="0.46" style="stop-color:#6800FE"/>
			<stop  offset="1" style="stop-color:#4300FC"/>
		</linearGradient>
		<rect x="980" y="273" class="st32" width="249" height="287"/>
		<text transform="matrix(1 0 0 1 1040.54 408)" class="st3 st4 st5">AVAILABLE </text>
		<text transform="matrix(1 0 0 1 1035.5 440)" class="st3 st4 st5">NETWORKS</text>
		<g>
			<defs>
				<rect id="SVGID_29_" x="955" y="42" width="287" height="287"/>
			</defs>
			<a xlink:href="https://en.wikipedia.org/wiki/Bullseye" >
			<clipPath id="SVGID_30_">
				<use xlink:href="#SVGID_29_"  style="overflow:visible;"/>
			</clipPath> </a>
			<g class="st33">
				<g>
					<defs>
						<rect id="SVGID_31_" x="955" y="42" width="287" height="287"/>
					</defs>
					<clipPath id="SVGID_32_">
						<use xlink:href="#SVGID_31_"  style="overflow:visible;"/>
					</clipPath>
					<g class="st34">
						<g>
							<defs>
								<rect id="SVGID_33_" x="955" y="42" width="287" height="287"/>
							</defs>
							<clipPath id="SVGID_34_">
								<use xlink:href="#SVGID_33_"  style="overflow:visible;"/>
							</clipPath>
							<g class="st35">
								<path class="st12" d="M1104.5,276.5c0,0-2-2.7-6-2.7c-4.1,0-6,2.7-6,2.7c-5.5,15.8-20.6,27.2-38.4,27.2v3.5h88.7v-3.5
									C1125.1,303.7,1110,292.3,1104.5,276.5z"/>
								<path class="st11" d="M1100.8,261.1h-4.5c-0.8,0-1.5,0.7-1.5,1.5c-0.1,5.8-0.9,10-2.3,13.9h12c-1.4-3.9-2.2-8-2.3-13.9
									C1102.2,261.8,1101.6,261.1,1100.8,261.1z"/>
								<path class="st12" d="M1018.8,260.8c0,5.5,4.5,10,10,10c4.9,0,9-3.6,9.8-8.2c0,0,0.1-0.2,0.2-0.2s0.2,0.2,0.2,0.2
									c0.8,4.7,4.9,8.2,9.8,8.2c4.9,0,9-3.6,9.8-8.2c0,0,0-0.2,0.2-0.2s0.2,0.2,0.2,0.2c0.8,4.7,4.9,8.2,9.8,8.2
									c4.9,0,9-3.6,9.8-8.2c0,0,0-0.2,0.2-0.2c0.1,0,0.2,0.2,0.2,0.2c0.8,4.7,4.9,8.2,9.8,8.2c4.9,0,9-3.6,9.8-8.2
									c0,0,0-0.2,0.2-0.2c0.1,0,0.2,0.2,0.2,0.2c0.8,4.7,4.9,8.2,9.8,8.2c4.9,0,9-3.6,9.8-8.2c0,0,0-0.2,0.2-0.2s0.2,0.2,0.2,0.2
									c0.8,4.7,4.9,8.2,9.8,8.2c4.9,0,9-3.6,9.8-8.2c0,0,0-0.2,0.2-0.2s0.2,0.2,0.2,0.2c0.8,4.7,4.9,8.2,9.8,8.2
									c4.7,0,8.6-3.2,9.7-7.6c0-0.1,0.2-0.1,0.2,0c1.1,4.3,5,7.6,9.7,7.6c5.5,0,10-4.5,10-10H1018.8z"/>
								<path class="st36" d="M1100.9,202h-4.8l-3.6-39.5h12L1100.9,202z"/>
								<path class="st12" d="M1038.6,162.5c0,5.5,4.5,10,10,10c5.2,0,9.5-4,10-9.1c0,0,0,0,0,0c0.4,5.1,4.7,9.1,10,9.1
									s9.5-4,10-9.1c0,0,0,0,0,0c0.4,5.1,4.7,9.1,10,9.1c5.3,0,9.5-4,10-9.1c0,0,0,0,0,0c0.4,5.1,4.7,9.1,10,9.1
									c5.2,0,9.5-4,10-9.1c0,0,0,0,0,0c0.4,5.1,4.7,9.1,10,9.1c5.2,0,9.5-4,10-9.1c0,0,0,0,0,0c0.4,5.1,4.7,9.1,10,9.1
									c5.5,0,10-4.5,10-10H1038.6z"/>
								<path class="st9" d="M1170.8,216.3c-0.8-0.4-1.3-1.4-0.9-2.2c0.4-1.1,0.6-2.2,0.5-3.4c-0.4-3.9-4-6.7-7.8-6.2
									c0,0-4.5-1.1-8.9-0.6c-4.4,0.4-8.7,2.6-8.7,2.6l-1.3,0.2c-3.9,0.4-6.8,4-6.4,7.9c0.1,0.7,0.3,1.5,0.6,2.1
									c-3,1.5-5,4.6-5.1,8.1c0,3,1.5,5.8,3.8,7.5c2,1.3,8.8,2.7,13.9,3.1c1,0.1,3.4,0.2,4.4,0.3c2.2,0.1,4.7,0,6.7-0.2
									c4.6-0.4,8.9-1.6,11-3c2.3-1.7,3.9-4.3,3.9-7.4C1176.4,221.1,1174.1,217.8,1170.8,216.3z"/>
								<path class="st21" d="M1172.4,232.4c-0.5-0.3-1-0.5-1.6-0.6l0,0c-1.8,1.2-5.4,2-10,2.4c-1.9,0.1-4.1,0.2-6.3,0.2
									c-1.1,0-2.1-0.1-3.2-0.2c-5.1-0.4-9.4-1.3-12.1-2.5l0,0h-0.9c-0.7,0-1.4,0.2-1.9,0.5c-1.1,0.7-1.9,1.9-1.9,3.3
									c0,2.1,1.8,3.8,3.9,3.8h31.6c2.1,0,3.8-1.6,3.9-3.6C1174.1,234.3,1173.5,233.1,1172.4,232.4z"/>
								<path class="st11" d="M1175.7,236.7C1175.7,236.7,1175.7,236.7,1175.7,236.7c-0.9,0-0.9,1.3-1.8,1.3c-0.9,0-0.9-1.3-1.8-1.3
									s-0.9,1.3-1.8,1.3s-0.9-1.3-1.8-1.3s-0.9,1.3-1.8,1.3c-0.9,0-0.9-1.3-1.8-1.3s-0.9,1.3-1.8,1.3s-0.9-1.3-1.8-1.3
									s-0.9,1.3-1.8,1.3s-0.9-1.3-1.8-1.3s-0.9,1.3-1.8,1.3c-0.9,0-0.9-1.3-1.8-1.3s-0.9,1.3-1.8,1.3s-0.9-1.3-1.8-1.3
									s-0.9,1.3-1.8,1.3c-0.9,0-0.9-1.3-1.8-1.3s-0.9,1.3-1.8,1.3s-0.9-1.3-1.8-1.3s-0.9,1.3-1.8,1.3s-0.9-1.3-1.8-1.3
									s-0.9,1.3-1.8,1.3s-0.9-1.3-1.8-1.3c-0.9,0-0.9,1.3-1.8,1.3s-0.9-1.3-1.8-1.3c0,0,0,0,0,0l3.9,19.6c0.3,1.3,1.5,2.3,2.8,2.3
									h28.9c1.4,0,2.6-1,2.8-2.3L1175.7,236.7z"/>
								<path class="st12" d="M1138.9,253c-0.1,0-0.1-0.1-0.2-0.1l-1.2-12.6c0-0.1,0-0.2,0.1-0.2c0.1,0,0.2,0.1,0.2,0.1l1.2,12.6
									C1139,252.9,1139,253,1138.9,253C1138.9,253,1138.9,253,1138.9,253z"/>
								<path class="st12" d="M1142,251.9c-0.1,0-0.2-0.1-0.2-0.2l-1-11.5c0-0.1,0.1-0.2,0.2-0.2c0.1,0,0.2,0.1,0.2,0.2l1,11.5
									C1142.2,251.8,1142.1,251.9,1142,251.9C1142,251.9,1142,251.9,1142,251.9z"/>
								<path class="st12" d="M1145.1,250.9c-0.1,0-0.2-0.1-0.2-0.2l-0.7-10.4c0-0.1,0.1-0.2,0.2-0.2c0.1,0,0.2,0.1,0.2,0.2
									l0.7,10.4C1145.3,250.8,1145.2,250.9,1145.1,250.9C1145.1,250.9,1145.1,250.9,1145.1,250.9z"/>
								<path class="st12" d="M1148.2,249.8c-0.1,0-0.2-0.1-0.2-0.2l-0.5-9.3c0-0.1,0.1-0.2,0.2-0.3c0.1,0,0.3,0.1,0.3,0.2l0.5,9.3
									C1148.4,249.7,1148.3,249.8,1148.2,249.8C1148.2,249.8,1148.2,249.8,1148.2,249.8z"/>
								<path class="st12" d="M1151.3,248.8c-0.1,0-0.3-0.1-0.3-0.3l-0.2-8.2c0-0.1,0.1-0.3,0.3-0.3c0.1,0,0.3,0.1,0.3,0.3l0.2,8.2
									C1151.6,248.7,1151.5,248.8,1151.3,248.8L1151.3,248.8z"/>
								<path class="st12" d="M1154.4,247.7c-0.2,0-0.3-0.1-0.3-0.3v-7.1c0-0.2,0.1-0.3,0.3-0.3c0.2,0,0.3,0.1,0.3,0.3v7.1
									C1154.7,247.6,1154.6,247.7,1154.4,247.7z"/>
								<path class="st10" d="M1161.7,206.4C1161.7,206.4,1161.7,206.4,1161.7,206.4c1.7-2.3,1-5.4,0.9-6c-1-4.5-5.3-6.4-6-6.7
									c-2.5-1.1-4.9-0.9-6-0.8c0,0,0,0,0,0c1,0.5,2.2,1.2,2.2,2.2c0.2,2.8-8.4,4.1-9,8.2c-0.1,0.9,0.1,2.2,1.8,4.1
									c0.2,0.2,0.5,0.5,0.8,0.6c0,0,0,0,0,0c1.3-1,3.9-2,6.9-2.4C1157.2,205,1160.6,205.4,1161.7,206.4z"/>
								<path class="st10" d="M1147.4,214.4c-0.1,0-0.2,0-0.2-0.1l-2.8-2.8c-0.1-0.1-0.1-0.3,0-0.4c0.1-0.1,0.3-0.1,0.4,0l2.8,2.8
									c0.1,0.1,0.1,0.3,0,0.4C1147.5,214.3,1147.5,214.4,1147.4,214.4z"/>
								<path class="st21" d="M1168.5,226.2c-0.1,0-0.2,0-0.2-0.1c-0.1-0.1-0.1-0.3,0-0.4l2.8-2.8c0.1-0.1,0.3-0.1,0.4,0
									c0.1,0.1,0.1,0.3,0,0.4l-2.8,2.8C1168.7,226.2,1168.6,226.2,1168.5,226.2z"/>
								<path class="st3" d="M1167.7,223.3c-0.2,0-0.3-0.1-0.3-0.3v-4c0-0.2,0.1-0.3,0.3-0.3c0.2,0,0.3,0.1,0.3,0.3v4
									C1168,223.2,1167.9,223.3,1167.7,223.3z"/>
								<path class="st21" d="M1140.4,219.7c-0.1,0-0.2,0-0.2-0.1c-0.1-0.1-0.1-0.3,0-0.4l2.8-2.8c0.1-0.1,0.3-0.1,0.4,0
									c0.1,0.1,0.1,0.3,0,0.4l-2.8,2.8C1140.5,219.7,1140.4,219.7,1140.4,219.7z"/>
								<path class="st36" d="M1163.4,213c-0.1,0-0.2,0-0.2-0.1l-2.8-2.8c-0.1-0.1-0.1-0.3,0-0.4c0.1-0.1,0.3-0.1,0.4,0l2.8,2.8
									c0.1,0.1,0.1,0.3,0,0.4C1163.5,213,1163.5,213,1163.4,213z"/>
								<path class="st3" d="M1141.8,226.3h-4c-0.2,0-0.3-0.1-0.3-0.3c0-0.2,0.1-0.3,0.3-0.3h4c0.2,0,0.3,0.1,0.3,0.3
									C1142.1,226.2,1142,226.3,1141.8,226.3z"/>
								<path class="st3" d="M1155.3,215.5h-4c-0.2,0-0.3-0.1-0.3-0.3c0-0.2,0.1-0.3,0.3-0.3h4c0.2,0,0.3,0.1,0.3,0.3
									C1155.6,215.3,1155.5,215.5,1155.3,215.5z"/>
									<a xlink:href="https://en.wikipedia.org/wiki/Bullseye_(target)" > 
								<path class="st21" d="M1157,223.9c-0.1,0-0.2,0-0.2-0.1c-0.1-0.1-0.1-0.3,0-0.4l2.8-2.8c0.1-0.1,0.3-0.1,0.4,0
									c0.1,0.1,0.1,0.3,0,0.4l-2.8,2.8C1157.1,223.9,1157,223.9,1157,223.9z"/>
								<path class="st10" d="M1158.2,229.8c-0.1,0-0.2,0-0.2-0.1l-2.8-2.8c-0.1-0.1-0.1-0.3,0-0.4c0.1-0.1,0.3-0.1,0.4,0l2.8,2.8
									c0.1,0.1,0.1,0.3,0,0.4C1158.3,229.7,1158.2,229.8,1158.2,229.8z"/>
								<path class="st11" d="M1120.3,225c0,3.1-1.6,5.7-3.9,7.4c-1.1,0.8-4.6,2.4-7.6,2.9c-3,0.6-7.1,0.9-11.2,0.8
									c-3-0.1-6.5-0.4-9-0.8c-3.4-0.5-6.9-2.1-8.1-3.1c-2.3-1.7-3.8-4.4-3.7-7.5c0-3.6,2.1-6.6,5.1-8.1c-0.3-0.7-0.5-1.4-0.6-2.1
									c-0.5-3.9,2.5-7.4,6.4-7.9c0,0,4.7-2.2,9.9-2.9c5.2-0.7,9,0.7,9,0.7c3.9-0.4,7.4,2.4,7.8,6.2c0.1,1.2,0,2.4-0.5,3.4
									c-0.4,0.9,0.1,1.9,0.9,2.2C1118.1,217.8,1120.4,221.1,1120.3,225z"/>
								<path class="st21" d="M1118,235.7c-0.1,2.1-1.9,3.6-3.9,3.6h-31.6c-2,0-3.8-1.5-3.9-3.6c-0.1-1.5,0.7-2.8,1.9-3.5
									c0.3-0.2,0.5-0.3,0.8-0.4c0,0,0,0,0,0c1.7,0.9,4.5,1.7,7.9,2.3c2.5,0.4,5.3,0.7,8.3,0.7c4.1,0.1,7.9-0.2,10.9-0.7
									c3.1-0.6,5.3-1.4,6.2-2.4l0,0c0.7,0,1.4,0.3,2,0.7C1117.4,233.1,1118.1,234.3,1118,235.7z"/>
								<path class="st10" d="M1104.7,206.7C1104.7,206.7,1104.7,206.7,1104.7,206.7c1.7-2.3,1-5.4,0.9-6c-1-4.5-5.3-6.4-6-6.7
									c-2.5-1.1-4.8-0.9-6-0.8c0,0,0,0,0,0c1,0.5,2.2,1.2,2.2,2.2c0.2,2.8-8.4,4.1-9,8.2c-0.1,0.9,0.1,2.2,1.8,4.1
									c0.2,0.2,0.5,0.5,0.8,0.6c0,0,0,0,0,0c1.3-1,3.9-2,6.9-2.4C1100.3,205.3,1103.7,205.7,1104.7,206.7z"/>
								<path class="st10" d="M1119.8,236.7C1119.8,236.7,1119.8,236.7,1119.8,236.7c-0.9,0-0.9,1.3-1.8,1.3s-0.9-1.3-1.8-1.3
									c-0.9,0-0.9,1.3-1.8,1.3c-0.9,0-0.9-1.3-1.8-1.3s-0.9,1.3-1.8,1.3s-0.9-1.3-1.8-1.3s-0.9,1.3-1.8,1.3s-0.9-1.3-1.8-1.3
									s-0.9,1.3-1.8,1.3s-0.9-1.3-1.8-1.3s-0.9,1.3-1.8,1.3c-0.9,0-0.9-1.3-1.8-1.3c-0.9,0-0.9,1.3-1.8,1.3s-0.9-1.3-1.8-1.3
									s-0.9,1.3-1.8,1.3s-0.9-1.3-1.8-1.3s-0.9,1.3-1.8,1.3s-0.9-1.3-1.8-1.3s-0.9,1.3-1.8,1.3s-0.9-1.3-1.8-1.3s-0.9,1.3-1.8,1.3
									s-0.9-1.3-1.8-1.3s-0.9,1.3-1.8,1.3s-0.9-1.3-1.8-1.3c0,0,0,0,0,0l3.9,19.6c0.3,1.3,1.5,2.3,2.8,2.3h28.9
									c1.4,0,2.6-1,2.8-2.3L1119.8,236.7z"/> </a>
								<path class="st3" d="M1083.3,253c-0.1,0-0.1-0.1-0.2-0.1l-1.2-12.6c0-0.1,0-0.2,0.1-0.2c0.1,0,0.2,0.1,0.2,0.1l1.2,12.6
									C1083.4,252.9,1083.3,253,1083.3,253C1083.3,253,1083.3,253,1083.3,253z"/>
								<path class="st3" d="M1086.4,251.6c-0.1,0-0.2-0.1-0.2-0.2l-1-11.1c0-0.1,0.1-0.2,0.2-0.2c0.1,0,0.2,0.1,0.2,0.2l1,11.1
									C1086.6,251.5,1086.5,251.6,1086.4,251.6C1086.4,251.6,1086.4,251.6,1086.4,251.6z"/>
								<path class="st3" d="M1089.5,250.2c-0.1,0-0.2-0.1-0.2-0.2l-0.7-9.7c0-0.1,0.1-0.2,0.2-0.2c0.1,0,0.2,0.1,0.2,0.2l0.7,9.7
									C1089.7,250.1,1089.6,250.2,1089.5,250.2C1089.5,250.2,1089.5,250.2,1089.5,250.2z"/>
								<path class="st3" d="M1092.6,248.8c-0.1,0-0.2-0.1-0.2-0.2l-0.5-8.2c0-0.1,0.1-0.2,0.2-0.3c0.1,0,0.2,0.1,0.3,0.2l0.5,8.2
									C1092.8,248.6,1092.7,248.8,1092.6,248.8C1092.6,248.8,1092.6,248.8,1092.6,248.8z"/>
								<path class="st3" d="M1095.7,247.4c-0.1,0-0.3-0.1-0.3-0.3l-0.2-6.8c0-0.1,0.1-0.3,0.3-0.3c0.2,0,0.3,0.1,0.3,0.3l0.2,6.8
									C1096,247.2,1095.8,247.4,1095.7,247.4L1095.7,247.4z"/>
								<path class="st3" d="M1098.8,246c-0.2,0-0.3-0.1-0.3-0.3v-5.3c0-0.2,0.1-0.3,0.3-0.3c0.2,0,0.3,0.1,0.3,0.3v5.3
									C1099.1,245.8,1099,246,1098.8,246z"/>
								<path class="st9" d="M1091.1,214.3c-0.1,0-0.2,0-0.2-0.1l-2.8-2.8c-0.1-0.1-0.1-0.3,0-0.4c0.1-0.1,0.3-0.1,0.4,0l2.8,2.8
									c0.1,0.1,0.1,0.3,0,0.4C1091.3,214.2,1091.2,214.3,1091.1,214.3z"/>
								<path class="st21" d="M1112.2,226.1c-0.1,0-0.1,0-0.2-0.1c-0.1-0.1-0.1-0.3,0-0.4l2.8-2.8c0.1-0.1,0.3-0.1,0.4,0
									c0.1,0.1,0.1,0.3,0,0.4l-2.8,2.8C1112.4,226.1,1112.3,226.1,1112.2,226.1z"/>
								<path class="st3" d="M1111.4,223.2c-0.2,0-0.3-0.1-0.3-0.3v-4c0-0.2,0.1-0.3,0.3-0.3c0.2,0,0.3,0.1,0.3,0.3v4
									C1111.7,223.1,1111.6,223.2,1111.4,223.2z"/>
								<path class="st21" d="M1084.1,219.6c-0.1,0-0.1,0-0.2-0.1c-0.1-0.1-0.1-0.3,0-0.4l2.8-2.8c0.1-0.1,0.3-0.1,0.4,0
									c0.1,0.1,0.1,0.3,0,0.4l-2.8,2.8C1084.2,219.6,1084.2,219.6,1084.1,219.6z"/>
								<path class="st36" d="M1107.1,212.9c-0.1,0-0.2,0-0.2-0.1l-2.8-2.8c-0.1-0.1-0.1-0.3,0-0.4c0.1-0.1,0.3-0.1,0.4,0l2.8,2.8
									c0.1,0.1,0.1,0.3,0,0.4C1107.3,212.9,1107.2,212.9,1107.1,212.9z"/>
								<path class="st3" d="M1085.6,226.2h-4c-0.2,0-0.3-0.1-0.3-0.3c0-0.2,0.1-0.3,0.3-0.3h4c0.2,0,0.3,0.1,0.3,0.3
									C1085.8,226.1,1085.7,226.2,1085.6,226.2z"/>
								<path class="st21" d="M1100.7,223.8c-0.1,0-0.2,0-0.2-0.1c-0.1-0.1-0.1-0.3,0-0.4l2.8-2.8c0.1-0.1,0.3-0.1,0.4,0
									s0.1,0.3,0,0.4l-2.8,2.8C1100.8,223.8,1100.8,223.8,1100.7,223.8z"/>
								<path class="st36" d="M1101.9,229.7c-0.1,0-0.2,0-0.2-0.1l-2.8-2.8c-0.1-0.1-0.1-0.3,0-0.4s0.3-0.1,0.4,0l2.8,2.8
									c0.1,0.1,0.1,0.3,0,0.4C1102,229.6,1101.9,229.7,1101.9,229.7z"/>
								<path class="st36" d="M1090.5,224.4c-0.1,0-0.2,0-0.2-0.1c-0.1-0.1-0.1-0.3,0-0.4l2.8-2.8c0.1-0.1,0.3-0.1,0.4,0
									c0.1,0.1,0.1,0.3,0,0.4l-2.8,2.8C1090.7,224.4,1090.6,224.4,1090.5,224.4z"/>
								<path class="st10" d="M1099.6,210.7c-0.1,0-0.2,0-0.2-0.1c-0.1-0.1-0.1-0.3,0-0.4l2.8-2.8c0.1-0.1,0.3-0.1,0.4,0
									c0.1,0.1,0.1,0.3,0,0.4l-2.8,2.8C1099.8,210.6,1099.7,210.7,1099.6,210.7z"/>
								<path class="st10" d="M1064.3,225c0,3.1-1.6,5.7-3.9,7.4c-1.4,1-4.3,2.3-7.3,2.9c-3,0.6-7.4,1-11.5,0.9
									c-3-0.1-6.4-0.6-8.8-1c-3.4-0.5-6.9-1.9-8.3-3c-2.3-1.7-3.8-4.4-3.7-7.5c0-3.6,2.1-6.6,5.1-8.1c-0.3-0.7-0.5-1.4-0.6-2.1
									c-0.5-3.9,2.5-7.4,6.4-7.9l1.3-0.1c0,0,4.5-2.5,9.2-2.7s8.4,0.7,8.4,0.7c3.9-0.4,7.4,2.4,7.8,6.2c0.1,1.2,0,2.4-0.5,3.4
									c-0.3,0.9,0.1,1.9,0.9,2.2C1062,217.8,1064.3,221.1,1064.3,225z"/>
								<path class="st9" d="M1062,235.7c-0.1,2.1-1.9,3.6-3.9,3.6h-31.6c-2,0-3.8-1.5-3.9-3.6c-0.1-1.5,0.7-2.8,1.9-3.5
									c0.3-0.2,0.5-0.3,0.8-0.4l0,0c1.7,0.9,4.5,1.7,7.9,2.3c2.5,0.4,5.3,0.7,8.3,0.7c4.1,0.1,7.9-0.2,10.8-0.7
									c3.1-0.6,5.3-1.4,6.2-2.4h0c0.7,0,1.4,0.3,1.9,0.7C1061.4,233.1,1062,234.3,1062,235.7z"/>
									<a xlink:href="https://en.wikipedia.org/wiki/Bullseye_(target)" >
								<path class="st21" d="M1063.6,236.7C1063.6,236.7,1063.6,236.7,1063.6,236.7c-0.9,0-0.9,1.3-1.8,1.3s-0.9-1.3-1.8-1.3
									s-0.9,1.3-1.8,1.3c-0.9,0-0.9-1.3-1.8-1.3c-0.9,0-0.9,1.3-1.8,1.3s-0.9-1.3-1.8-1.3s-0.9,1.3-1.8,1.3s-0.9-1.3-1.8-1.3
									s-0.9,1.3-1.8,1.3s-0.9-1.3-1.8-1.3s-0.9,1.3-1.8,1.3s-0.9-1.3-1.8-1.3c-0.9,0-0.9,1.3-1.8,1.3s-0.9-1.3-1.8-1.3
									s-0.9,1.3-1.8,1.3c-0.9,0-0.9-1.3-1.8-1.3s-0.9,1.3-1.8,1.3s-0.9-1.3-1.8-1.3s-0.9,1.3-1.8,1.3s-0.9-1.3-1.8-1.3
									s-0.9,1.3-1.8,1.3s-0.9-1.3-1.8-1.3s-0.9,1.3-1.8,1.3s-0.9-1.3-1.8-1.3c0,0,0,0,0,0l3.9,19.6c0.3,1.3,1.4,2.3,2.8,2.3h28.9
									c1.4,0,2.6-1,2.8-2.3L1063.6,236.7z"/> </a>
								<path class="st20" d="M1026.8,253c-0.1,0-0.1-0.1-0.2-0.1l-1.2-12.6c0-0.1,0.1-0.2,0.1-0.2c0.1,0,0.2,0.1,0.2,0.1l1.2,12.6
									C1026.9,252.9,1026.9,253,1026.8,253C1026.8,253,1026.8,253,1026.8,253z"/>
								<path class="st20" d="M1029.9,251.9c-0.1,0-0.2-0.1-0.2-0.2l-1-11.5c0-0.1,0.1-0.2,0.2-0.2c0.1,0,0.2,0.1,0.2,0.2l1,11.5
									C1030.1,251.8,1030,251.9,1029.9,251.9C1029.9,251.9,1029.9,251.9,1029.9,251.9z"/>
								<path class="st20" d="M1033,250.9c-0.1,0-0.2-0.1-0.2-0.2l-0.7-10.4c0-0.1,0.1-0.2,0.2-0.2c0.1,0,0.2,0.1,0.2,0.2l0.7,10.4
									C1033.2,250.8,1033.1,250.9,1033,250.9L1033,250.9z"/>
								<path class="st20" d="M1036.1,249.8c-0.1,0-0.2-0.1-0.2-0.2l-0.5-9.3c0-0.1,0.1-0.2,0.2-0.3c0.1,0,0.2,0.1,0.3,0.2l0.5,9.3
									C1036.4,249.7,1036.3,249.8,1036.1,249.8L1036.1,249.8z"/>
								<path class="st20" d="M1039.2,248.8c-0.2,0-0.3-0.1-0.3-0.3l-0.2-8.2c0-0.1,0.1-0.3,0.3-0.3c0.2,0,0.3,0.1,0.3,0.3l0.2,8.2
									C1039.5,248.7,1039.4,248.8,1039.2,248.8L1039.2,248.8z"/>
								<path class="st20" d="M1042.3,247.7c-0.2,0-0.3-0.1-0.3-0.3v-7.1c0-0.2,0.1-0.3,0.3-0.3c0.2,0,0.3,0.1,0.3,0.3v7.1
									C1042.6,247.6,1042.5,247.7,1042.3,247.7z"/>
								<path class="st21" d="M1049.6,206.4C1049.6,206.4,1049.6,206.4,1049.6,206.4c1.7-2.3,1-5.4,0.9-6c-1-4.5-5.3-6.4-6-6.7
									c-2.5-1.1-4.8-0.9-6-0.8c0,0,0,0,0,0c1,0.5,2.2,1.2,2.2,2.2c0.2,2.8-8.4,4.1-9,8.2c-0.1,0.9,0.1,2.2,1.8,4.1
									c0.2,0.2,0.5,0.5,0.8,0.6c0,0,0,0,0,0c1.3-1,3.9-2,6.9-2.4C1045.2,205,1048.5,205.4,1049.6,206.4z"/>
								<path class="st9" d="M1053.4,211.3c0,0.8-0.6,1.4-1.4,1.4c-0.8,0-1.4-0.6-1.4-1.4c0-0.8,0.6-1.4,1.4-1.4
									C1052.8,209.8,1053.4,210.5,1053.4,211.3z"/>
								<path class="st3" d="M1033.9,219.7c0,0.8-0.6,1.4-1.4,1.4s-1.4-0.6-1.4-1.4c0-0.8,0.6-1.4,1.4-1.4
									S1033.9,218.9,1033.9,219.7z"/>
								<path class="st21" d="M1047.1,217.8c0,0.8-0.7,1.4-1.4,1.4c-0.8,0-1.4-0.6-1.4-1.4c0-0.8,0.6-1.4,1.4-1.4
									C1046.5,216.4,1047.1,217,1047.1,217.8z"/>
								<path class="st9" d="M1036.4,225.5c0,1.1-0.9,1.9-1.9,1.9c-1.1,0-1.9-0.9-1.9-1.9c0-1.1,0.9-1.9,1.9-1.9
									C1035.5,223.6,1036.4,224.4,1036.4,225.5z"/>
								<path class="st21" d="M1028.8,226.2c0,0.8-0.6,1.4-1.4,1.4c-0.8,0-1.4-0.6-1.4-1.4c0-0.8,0.6-1.4,1.4-1.4
									C1028.2,224.8,1028.8,225.4,1028.8,226.2z"/>
								<path class="st3" d="M1049.6,208c0,0.3-0.3,0.6-0.6,0.6s-0.6-0.3-0.6-0.6c0-0.3,0.3-0.6,0.6-0.6S1049.6,207.7,1049.6,208z"
									/>
								<path class="st3" d="M1055.9,214c0,0.3-0.3,0.6-0.6,0.6c-0.3,0-0.6-0.3-0.6-0.6c0-0.3,0.3-0.6,0.6-0.6
									C1055.6,213.4,1055.9,213.7,1055.9,214z"/>
								<path class="st3" d="M1054.4,220.6c0,0.3-0.3,0.6-0.6,0.6c-0.3,0-0.6-0.3-0.6-0.6c0-0.3,0.3-0.6,0.6-0.6
									C1054.1,220,1054.4,220.3,1054.4,220.6z"/>
								<path class="st3" d="M1053.2,224.2c0,0.3-0.3,0.6-0.6,0.6c-0.3,0-0.6-0.3-0.6-0.6s0.3-0.6,0.6-0.6
									C1052.9,223.6,1053.2,223.8,1053.2,224.2z"/>
								<path class="st3" d="M1046.6,213.4c0,0.3-0.3,0.6-0.6,0.6s-0.6-0.3-0.6-0.6c0-0.3,0.3-0.6,0.6-0.6
									S1046.6,213.1,1046.6,213.4z"/>
								<path class="st3" d="M1037.1,213.4c0,0.3-0.3,0.6-0.6,0.6c-0.3,0-0.6-0.3-0.6-0.6c0-0.3,0.3-0.6,0.6-0.6
									C1036.8,212.8,1037.1,213.1,1037.1,213.4z"/>
								<path class="st3" d="M1045.3,210.6c0,0.3-0.3,0.6-0.6,0.6c-0.3,0-0.6-0.3-0.6-0.6c0-0.3,0.3-0.6,0.6-0.6
									C1045,210,1045.3,210.3,1045.3,210.6z"/>
								<path class="st3" d="M1050.4,215c0,0.3-0.3,0.6-0.6,0.6c-0.3,0-0.6-0.3-0.6-0.6c0-0.3,0.3-0.6,0.6-0.6
									C1050.2,214.4,1050.4,214.6,1050.4,215z"/>
								<path class="st3" d="M1053.1,217.7c0,0.3-0.3,0.6-0.6,0.6c-0.3,0-0.6-0.3-0.6-0.6c0-0.3,0.3-0.6,0.6-0.6
									C1052.8,217.1,1053.1,217.3,1053.1,217.7z"/>
								<path class="st3" d="M1040.5,218.5c0,0.3-0.3,0.6-0.6,0.6s-0.6-0.3-0.6-0.6c0-0.3,0.3-0.6,0.6-0.6
									S1040.5,218.2,1040.5,218.5z"/>
								<path class="st3" d="M1038.7,211.5c0,0.3-0.3,0.6-0.6,0.6s-0.6-0.3-0.6-0.6c0-0.3,0.3-0.6,0.6-0.6
									S1038.7,211.2,1038.7,211.5z"/>
								<path class="st3" d="M1046.9,220.9c0,0.3-0.3,0.6-0.6,0.6c-0.3,0-0.6-0.3-0.6-0.6c0-0.3,0.3-0.6,0.6-0.6
									C1046.6,220.3,1046.9,220.6,1046.9,220.9z"/>
								<path class="st3" d="M1051.1,217.3c0,0.3-0.3,0.6-0.6,0.6s-0.6-0.3-0.6-0.6s0.3-0.6,0.6-0.6S1051.1,217,1051.1,217.3z"/>
								<path class="st3" d="M1048.4,217.3c0,0.2-0.1,0.3-0.3,0.3c-0.2,0-0.3-0.1-0.3-0.3c0-0.2,0.1-0.3,0.3-0.3
									C1048.3,217,1048.4,217.1,1048.4,217.3z"/>
								<path class="st3" d="M1052,215.5c0,0.2-0.1,0.3-0.3,0.3c-0.2,0-0.3-0.1-0.3-0.3c0-0.2,0.1-0.3,0.3-0.3
									C1051.9,215.2,1052,215.3,1052,215.5z"/>
								<path class="st3" d="M1052.6,228.5c0,1.1-0.9,1.9-1.9,1.9c-1.1,0-1.9-0.9-1.9-1.9c0-1.1,0.9-1.9,1.9-1.9
									C1051.7,226.6,1052.6,227.4,1052.6,228.5z"/>
								<path class="st3" d="M1058.6,225.2c0,1.1-0.9,1.9-1.9,1.9c-1.1,0-1.9-0.9-1.9-1.9c0-1.1,0.9-1.9,1.9-1.9
									C1057.7,223.3,1058.6,224.2,1058.6,225.2z"/>
								<path class="st9" d="M1043.1,182.3c-0.1,0-0.2,0-0.2-0.1l-2.8-2.8c-0.1-0.1-0.1-0.3,0-0.4c0.1-0.1,0.3-0.1,0.4,0l2.8,2.8
									c0.1,0.1,0.1,0.3,0,0.4C1043.3,182.3,1043.2,182.3,1043.1,182.3z"/>
								<path class="st30" d="M1033.5,178.7c-0.2,0-0.3-0.1-0.3-0.3v-4c0-0.2,0.1-0.3,0.3-0.3c0.2,0,0.3,0.1,0.3,0.3v4
									C1033.8,178.5,1033.7,178.7,1033.5,178.7z"/>
								<path class="st30" d="M1055.2,186.2h-4c-0.2,0-0.3-0.1-0.3-0.3c0-0.2,0.1-0.3,0.3-0.3h4c0.2,0,0.3,0.1,0.3,0.3
									C1055.5,186.1,1055.4,186.2,1055.2,186.2z"/>
								<path class="st10" d="M1029.7,193.9c-0.1,0-0.2,0-0.2-0.1c-0.1-0.1-0.1-0.3,0-0.4l2.8-2.8c0.1-0.1,0.3-0.1,0.4,0
									c0.1,0.1,0.1,0.3,0,0.4l-2.8,2.8C1029.8,193.9,1029.8,193.9,1029.7,193.9z"/>
								<path class="st10" d="M1037.6,184.3h-4c-0.2,0-0.3-0.1-0.3-0.3c0-0.2,0.1-0.3,0.3-0.3h4c0.2,0,0.3,0.1,0.3,0.3
									C1037.8,184.2,1037.7,184.3,1037.6,184.3z"/>
								<path class="st9" d="M1099.4,182.3c-0.1,0-0.2,0-0.2-0.1l-2.8-2.8c-0.1-0.1-0.1-0.3,0-0.4s0.3-0.1,0.4,0l2.8,2.8
									c0.1,0.1,0.1,0.3,0,0.4C1099.6,182.3,1099.5,182.3,1099.4,182.3z"/>
								<path class="st30" d="M1079.8,195.7c-0.2,0-0.3-0.1-0.3-0.3v-4c0-0.2,0.1-0.3,0.3-0.3c0.2,0,0.3,0.1,0.3,0.3v4
									C1080.1,195.6,1079.9,195.7,1079.8,195.7z"/>
								<path class="st30" d="M1111.5,186.2h-4c-0.2,0-0.3-0.1-0.3-0.3c0-0.2,0.1-0.3,0.3-0.3h4c0.2,0,0.3,0.1,0.3,0.3
									C1111.8,186.1,1111.7,186.2,1111.5,186.2z"/>
								<path class="st10" d="M1086,193.9c-0.1,0-0.2,0-0.2-0.1c-0.1-0.1-0.1-0.3,0-0.4l2.8-2.8c0.1-0.1,0.3-0.1,0.4,0
									c0.1,0.1,0.1,0.3,0,0.4l-2.8,2.8C1086.1,193.9,1086.1,193.9,1086,193.9z"/>
								<path class="st10" d="M1093.8,184.3h-4c-0.2,0-0.3-0.1-0.3-0.3c0-0.2,0.1-0.3,0.3-0.3h4c0.2,0,0.3,0.1,0.3,0.3
									C1094.2,184.2,1094,184.3,1093.8,184.3z"/>
								<path class="st9" d="M1155.2,182.3c-0.1,0-0.2,0-0.2-0.1l-2.8-2.8c-0.1-0.1-0.1-0.3,0-0.4c0.1-0.1,0.3-0.1,0.4,0l2.8,2.8
									c0.1,0.1,0.1,0.3,0,0.4C1155.3,182.3,1155.3,182.3,1155.2,182.3z"/>
								<path class="st30" d="M1145.6,178.7c-0.2,0-0.3-0.1-0.3-0.3v-4c0-0.2,0.1-0.3,0.3-0.3c0.2,0,0.3,0.1,0.3,0.3v4
									C1145.9,178.5,1145.8,178.7,1145.6,178.7z"/>
								<path class="st30" d="M1167.3,186.2h-4c-0.2,0-0.3-0.1-0.3-0.3c0-0.2,0.1-0.3,0.3-0.3h4c0.2,0,0.3,0.1,0.3,0.3
									C1167.6,186.1,1167.4,186.2,1167.3,186.2z"/>
								<path class="st10" d="M1141.8,193.9c-0.1,0-0.2,0-0.2-0.1c-0.1-0.1-0.1-0.3,0-0.4l2.8-2.8c0.1-0.1,0.3-0.1,0.4,0
									c0.1,0.1,0.1,0.3,0,0.4l-2.8,2.8C1141.9,193.9,1141.8,193.9,1141.8,193.9z"/>
								<path class="st10" d="M1149.6,184.3h-4c-0.2,0-0.3-0.1-0.3-0.3c0-0.2,0.1-0.3,0.3-0.3h4c0.2,0,0.3,0.1,0.3,0.3
									C1149.9,184.2,1149.8,184.3,1149.6,184.3z"/>
								<path class="st10" d="M1145.4,132.5c-0.5,0.8-1.2,1.5-2.1,2.1c-0.7,0.5-4.7,2-7.8,2.5c-2.9,0.5-7,0.8-10.8,0.7
									c-2.7-0.1-6.3-0.2-8.6-0.6c-3.6-0.5-8.5-2.3-9.1-2.8c-0.8-0.6-1.4-1.2-1.9-2c-3.5-5.7-1.1-11.6,3.4-13.8
									c-0.9-2-0.9-4.5,0.5-7.1c0.7-1.4,2.6-2.6,4.2-2.8l21-2.4c1.8-0.2,3.6,0.5,4.8,1.9c2.8,3.3,2.5,7,0.6,9.5
									C1145.6,119,1149.5,125.9,1145.4,132.5z"/>
								<path class="st21" d="M1143.3,134.6c-0.5-0.4-1-0.6-1.6-0.7c0,0,0,0,0,0c-1.1,1-3.4,1.8-6.5,2.3c-2.9,0.5-6.4,0.7-10.3,0.6
									c-2.7-0.1-5.3-0.3-7.6-0.6c-3.6-0.5-6.6-1.4-8.5-2.3c0,0,0,0,0,0c-0.7,0.1-1.3,0.3-1.8,0.6c-1,0.7-1.7,1.9-1.7,3.3
									c0.1,2.1,1.9,3.7,3.9,3.7h31.6c2,0,3.8-1.5,3.9-3.5C1144.9,136.6,1144.3,135.4,1143.3,134.6z"/>
								<path class="st9" d="M1146.4,138.8C1146.4,138.8,1146.4,138.8,1146.4,138.8c-0.9,0-0.9,1.3-1.8,1.3s-0.9-1.3-1.8-1.3
									c-0.9,0-0.9,1.3-1.8,1.3s-0.9-1.3-1.8-1.3s-0.9,1.3-1.8,1.3s-0.9-1.3-1.8-1.3s-0.9,1.3-1.8,1.3s-0.9-1.3-1.8-1.3
									c-0.9,0-0.9,1.3-1.8,1.3s-0.9-1.3-1.8-1.3c-0.9,0-0.9,1.3-1.8,1.3s-0.9-1.3-1.8-1.3s-0.9,1.3-1.8,1.3s-0.9-1.3-1.8-1.3
									s-0.9,1.3-1.8,1.3s-0.9-1.3-1.8-1.3s-0.9,1.3-1.8,1.3s-0.9-1.3-1.8-1.3s-0.9,1.3-1.8,1.3c-0.9,0-0.9-1.3-1.8-1.3
									s-0.9,1.3-1.8,1.3s-0.9-1.3-1.8-1.3s-0.9,1.3-1.8,1.3c-0.9,0-0.9-1.3-1.8-1.3c0,0,0,0,0,0l3.9,19.6c0.3,1.3,1.4,2.3,2.8,2.3
									h29c1.4,0,2.6-1,2.8-2.3L1146.4,138.8z"/>
								<path class="st21" d="M1109.6,155.1c-0.1,0-0.1-0.1-0.1-0.1l-1.2-12.6c0-0.1,0.1-0.2,0.1-0.2c0.1,0,0.2,0.1,0.2,0.1
									l1.2,12.6C1109.7,155,1109.7,155.1,1109.6,155.1C1109.6,155.1,1109.6,155.1,1109.6,155.1z"/>
								<path class="st21" d="M1112.7,154.1c-0.1,0-0.2-0.1-0.2-0.2l-1-11.5c0-0.1,0.1-0.2,0.2-0.2c0.1,0,0.2,0.1,0.2,0.2l1,11.5
									C1112.9,154,1112.8,154.1,1112.7,154.1L1112.7,154.1z"/>
								<path class="st21" d="M1115.8,153c-0.1,0-0.2-0.1-0.2-0.2l-0.7-10.4c0-0.1,0.1-0.2,0.2-0.2c0.1,0,0.2,0.1,0.2,0.2l0.7,10.4
									C1116,152.9,1115.9,153,1115.8,153L1115.8,153z"/>
								<path class="st21" d="M1118.9,152c-0.1,0-0.2-0.1-0.2-0.2l-0.5-9.3c0-0.1,0.1-0.2,0.2-0.3c0.1,0,0.2,0.1,0.3,0.2l0.5,9.3
									C1119.2,151.9,1119.1,152,1118.9,152C1118.9,152,1118.9,152,1118.9,152z"/>
								<path class="st21" d="M1122,150.9c-0.1,0-0.3-0.1-0.3-0.3l-0.2-8.2c0-0.1,0.1-0.3,0.3-0.3c0.1,0,0.3,0.1,0.3,0.3l0.2,8.2
									C1122.3,150.8,1122.2,150.9,1122,150.9C1122,150.9,1122,150.9,1122,150.9z"/>
								<path class="st21" d="M1125.1,149.9c-0.2,0-0.3-0.1-0.3-0.3v-7.1c0-0.2,0.1-0.3,0.3-0.3c0.2,0,0.3,0.1,0.3,0.3v7.1
									C1125.4,149.8,1125.3,149.9,1125.1,149.9z"/>
								<path class="st9" d="M1123.7,116.3c0,0.8-0.7,1.4-1.4,1.4c-0.8,0-1.4-0.6-1.4-1.4c0-0.8,0.7-1.4,1.4-1.4
									C1123.1,114.8,1123.7,115.5,1123.7,116.3z"/>
								<path class="st3" d="M1117.5,125.8c0,0.8-0.7,1.4-1.4,1.4c-0.8,0-1.5-0.6-1.5-1.4c0-0.8,0.7-1.4,1.5-1.4
									C1116.8,124.4,1117.5,125,1117.5,125.8z"/>
								<path class="st3" d="M1129.3,131.8c0,0.8-0.7,1.4-1.4,1.4c-0.8,0-1.4-0.6-1.4-1.4c0-0.8,0.7-1.4,1.4-1.4
									C1128.7,130.4,1129.3,131,1129.3,131.8z"/>
								<path class="st3" d="M1136.5,109.7c0,0.8-0.7,1.4-1.4,1.4c-0.8,0-1.4-0.6-1.4-1.4c0-0.8,0.6-1.4,1.4-1.4
									C1135.8,108.2,1136.5,108.9,1136.5,109.7z"/>
								<path class="st21" d="M1111.2,127.3c0,0.8-0.6,1.4-1.4,1.4c-0.8,0-1.4-0.6-1.4-1.4c0-0.8,0.7-1.4,1.4-1.4
									C1110.6,125.8,1111.2,126.5,1111.2,127.3z"/>
								<path class="st3" d="M1137.2,129.1c0,0.3-0.3,0.6-0.6,0.6s-0.6-0.3-0.6-0.6s0.3-0.6,0.6-0.6S1137.2,128.7,1137.2,129.1z"/>
								<path class="st3" d="M1134.2,112.3c0,0.3-0.3,0.6-0.6,0.6s-0.6-0.3-0.6-0.6c0-0.3,0.3-0.6,0.6-0.6S1134.2,112,1134.2,112.3z
									"/>
								<path class="st3" d="M1118.7,116.5c0,0.3-0.3,0.6-0.6,0.6c-0.3,0-0.6-0.3-0.6-0.6s0.3-0.6,0.6-0.6
									C1118.4,115.9,1118.7,116.2,1118.7,116.5z"/>
								<path class="st3" d="M1115.6,115.6c0,0.3-0.3,0.6-0.6,0.6c-0.3,0-0.6-0.3-0.6-0.6c0-0.3,0.3-0.6,0.6-0.6
									C1115.3,115,1115.6,115.2,1115.6,115.6z"/>
								<path class="st3" d="M1114.4,128.8c0,0.3-0.3,0.6-0.6,0.6c-0.3,0-0.6-0.3-0.6-0.6c0-0.3,0.3-0.6,0.6-0.6
									C1114.2,128.2,1114.4,128.5,1114.4,128.8z"/>
								<path class="st3" d="M1120.5,125.5c0,0.3-0.3,0.6-0.6,0.6s-0.6-0.3-0.6-0.6c0-0.3,0.3-0.6,0.6-0.6
									S1120.5,125.1,1120.5,125.5z"/>
								<path class="st3" d="M1119.7,113.9c0,0.3-0.3,0.6-0.6,0.6c-0.3,0-0.6-0.3-0.6-0.6s0.3-0.6,0.6-0.6
									C1119.4,113.3,1119.7,113.5,1119.7,113.9z"/>
								<path class="st3" d="M1134.2,130.9c0,0.3-0.3,0.6-0.6,0.6s-0.6-0.3-0.6-0.6s0.3-0.6,0.6-0.6S1134.2,130.5,1134.2,130.9z"/>
								<path class="st3" d="M1123.5,132.3c0,0.2-0.1,0.3-0.3,0.3c-0.2,0-0.3-0.1-0.3-0.3c0-0.2,0.1-0.3,0.3-0.3
									C1123.3,132,1123.5,132.2,1123.5,132.3z"/>
								<path class="st3" d="M1135.1,127.6c0,0.2-0.1,0.3-0.3,0.3c-0.2,0-0.3-0.1-0.3-0.3s0.1-0.3,0.3-0.3
									C1135,127.3,1135.1,127.4,1135.1,127.6z"/>
								<path class="st3" d="M1116,129.4c0,0.2-0.1,0.3-0.3,0.3c-0.2,0-0.3-0.1-0.3-0.3c0-0.2,0.1-0.3,0.3-0.3
									C1115.9,129.1,1116,129.2,1116,129.4z"/>
								<path class="st3" d="M1140.9,126.3c0,1.1-0.9,1.9-1.9,1.9c-1.1,0-1.9-0.9-1.9-1.9c0-1.1,0.9-1.9,1.9-1.9
									C1140.1,124.3,1140.9,125.2,1140.9,126.3z"/>
								<path class="st21" d="M1133,108.5C1133,108.5,1133,108.5,1133,108.5c1.7-2.3,1-5.4,0.9-6c-1-4.5-5.3-6.4-6-6.7
									c-2.5-1.1-4.8-0.9-6-0.7c0,0,0,0,0,0c1,0.5,2.2,1.2,2.2,2.2c0.2,2.8-8.4,4.1-9,8.2c-0.1,0.9,0.1,2.2,1.8,4.1
									c0.2,0.2,0.5,0.5,0.8,0.6c0,0,0,0,0,0c1.3-1,3.9-2,6.9-2.4C1128.5,107.2,1131.9,107.5,1133,108.5z"/>
								<path class="st9" d="M1093.6,127c0,3-1.5,5.6-3.8,7.3c-1.2,0.7-4.6,2.4-7.8,3c-2.9,0.5-7.1,0.8-11.1,0.7
									c-2.9-0.1-6.2-0.4-8.6-0.7c-3.4-0.5-7.5-2.1-8.4-2.8c-2.4-1.7-4-4.5-4-7.7c0-3.6,2.1-6.6,5.1-8.1c-0.3-0.7-0.5-1.4-0.6-2.1
									c-0.5-3.9,2.5-7.4,6.4-7.9l18.9-2.1c3.9-0.4,7.4,2.3,7.8,6.2c0.1,1.2,0,2.4-0.5,3.5c-0.4,0.9,0.1,1.9,0.9,2.2
									C1091.3,119.8,1093.6,123.2,1093.6,127z"/>
								<path class="st10" d="M1089.8,134.3c-0.6-0.3-1.2-0.5-1.9-0.5h-0.1v0c-0.9,1-3.3,1.8-6.5,2.4c-2.9,0.5-6.6,0.7-10.6,0.7
									c-2.9-0.1-5.6-0.3-8-0.7c-3.4-0.5-6.2-1.2-8-2.1c0,0,0,0,0,0c-0.3,0.1-0.5,0.2-0.7,0.4c-1,0.7-1.7,1.8-1.7,3.2
									c0,2.1,1.8,3.8,3.8,3.8h31.8c2.1,0,3.9-1.7,3.8-3.8C1091.6,136.2,1090.9,135,1089.8,134.3z"/>
								<path class="st10" d="M1078.9,108.5C1078.9,108.5,1078.9,108.5,1078.9,108.5c1.7-2.3,1-5.4,0.9-6c-1-4.5-5.3-6.4-6-6.7
									c-2.5-1.1-4.8-0.9-6-0.7c0,0,0,0,0,0c1,0.5,2.2,1.2,2.2,2.2c0.2,2.8-8.4,4.1-9,8.2c-0.1,0.9,0.1,2.2,1.8,4.1
									c0.2,0.2,0.5,0.5,0.8,0.6c0,0,0,0,0,0c1.3-1,3.9-2,6.9-2.4C1074.4,107.2,1077.8,107.5,1078.9,108.5z"/>
								<path class="st11" d="M1093.3,138.8C1093.3,138.8,1093.3,138.8,1093.3,138.8c-0.9,0-0.9,1.3-1.8,1.3c-0.9,0-0.9-1.3-1.8-1.3
									s-0.9,1.3-1.8,1.3s-0.9-1.3-1.8-1.3s-0.9,1.3-1.8,1.3s-0.9-1.3-1.8-1.3c-0.9,0-0.9,1.3-1.8,1.3c-0.9,0-0.9-1.3-1.8-1.3
									s-0.9,1.3-1.8,1.3s-0.9-1.3-1.8-1.3s-0.9,1.3-1.8,1.3s-0.9-1.3-1.8-1.3s-0.9,1.3-1.8,1.3s-0.9-1.3-1.8-1.3s-0.9,1.3-1.8,1.3
									s-0.9-1.3-1.8-1.3c-0.9,0-0.9,1.3-1.8,1.3s-0.9-1.3-1.8-1.3s-0.9,1.3-1.8,1.3c-0.9,0-0.9-1.3-1.8-1.3s-0.9,1.3-1.8,1.3
									s-0.9-1.3-1.8-1.3s-0.9,1.3-1.8,1.3s-0.9-1.3-1.8-1.3c0,0,0,0,0,0l3.9,19.6c0.3,1.3,1.4,2.3,2.8,2.3h28.9
									c1.4,0,2.6-1,2.8-2.3L1093.3,138.8z"/>
								<path class="st3" d="M1056.7,155.1c-0.1,0-0.1-0.1-0.1-0.1l-1.2-12.6c0-0.1,0.1-0.2,0.1-0.2c0.1,0,0.2,0.1,0.2,0.1l1.2,12.6
									C1056.8,155,1056.8,155.1,1056.7,155.1C1056.7,155.1,1056.7,155.1,1056.7,155.1z"/>
								<path class="st3" d="M1059.8,153.7c-0.1,0-0.2-0.1-0.2-0.2l-1-11.1c0-0.1,0.1-0.2,0.2-0.2c0.1,0,0.2,0.1,0.2,0.2l1,11.1
									C1060,153.6,1059.9,153.7,1059.8,153.7C1059.8,153.7,1059.8,153.7,1059.8,153.7z"/>
								<path class="st3" d="M1062.9,152.3c-0.1,0-0.2-0.1-0.2-0.2l-0.7-9.7c0-0.1,0.1-0.2,0.2-0.2c0.1,0,0.2,0.1,0.2,0.2l0.7,9.7
									C1063.1,152.2,1063.1,152.3,1062.9,152.3C1062.9,152.3,1062.9,152.3,1062.9,152.3z"/>
								<path class="st3" d="M1066,150.9c-0.1,0-0.2-0.1-0.2-0.2l-0.5-8.2c0-0.1,0.1-0.2,0.2-0.3c0.1,0,0.3,0.1,0.3,0.2l0.5,8.2
									C1066.3,150.8,1066.2,150.9,1066,150.9C1066,150.9,1066,150.9,1066,150.9z"/>
								<path class="st3" d="M1069.1,149.5c-0.1,0-0.3-0.1-0.3-0.3l-0.2-6.8c0-0.1,0.1-0.3,0.3-0.3c0.1,0,0.3,0.1,0.3,0.3l0.2,6.8
									C1069.4,149.4,1069.3,149.5,1069.1,149.5C1069.1,149.5,1069.1,149.5,1069.1,149.5z"/>
								<path class="st3" d="M1072.2,148.1c-0.2,0-0.3-0.1-0.3-0.3v-5.3c0-0.2,0.1-0.3,0.3-0.3c0.2,0,0.3,0.1,0.3,0.3v5.3
									C1072.5,148,1072.4,148.1,1072.2,148.1z"/>
								<path class="st10" d="M1064.3,115.2c-0.1,0-0.2,0-0.2-0.1l-2.8-2.8c-0.1-0.1-0.1-0.3,0-0.4c0.1-0.1,0.3-0.1,0.4,0l2.8,2.8
									c0.1,0.1,0.1,0.3,0,0.4C1064.4,115.1,1064.3,115.2,1064.3,115.2z"/>
								<path class="st21" d="M1085.4,127c-0.1,0-0.2,0-0.2-0.1c-0.1-0.1-0.1-0.3,0-0.4l2.8-2.8c0.1-0.1,0.3-0.1,0.4,0
									c0.1,0.1,0.1,0.3,0,0.4l-2.8,2.8C1085.5,127,1085.5,127,1085.4,127z"/>
								<path class="st3" d="M1084.6,124.1c-0.2,0-0.3-0.1-0.3-0.3v-4c0-0.2,0.1-0.3,0.3-0.3c0.2,0,0.3,0.1,0.3,0.3v4
									C1084.9,124,1084.8,124.1,1084.6,124.1z"/>
								<path class="st21" d="M1057.3,120.5c-0.1,0-0.2,0-0.2-0.1c-0.1-0.1-0.1-0.3,0-0.4l2.8-2.8c0.1-0.1,0.3-0.1,0.4,0
									c0.1,0.1,0.1,0.3,0,0.4l-2.8,2.8C1057.4,120.5,1057.3,120.5,1057.3,120.5z"/>
								<path class="st36" d="M1080.3,113.8c-0.1,0-0.2,0-0.2-0.1l-2.8-2.8c-0.1-0.1-0.1-0.3,0-0.4c0.1-0.1,0.3-0.1,0.4,0l2.8,2.8
									c0.1,0.1,0.1,0.3,0,0.4C1080.4,113.8,1080.3,113.8,1080.3,113.8z"/>
								<path class="st3" d="M1058.7,127.1h-4c-0.2,0-0.3-0.1-0.3-0.3s0.1-0.3,0.3-0.3h4c0.2,0,0.3,0.1,0.3,0.3
									S1058.9,127.1,1058.7,127.1z"/>
								<path class="st3" d="M1072.2,116.3h-4c-0.2,0-0.3-0.1-0.3-0.3s0.1-0.3,0.3-0.3h4c0.2,0,0.3,0.1,0.3,0.3
									S1072.4,116.3,1072.2,116.3z"/>
								<path class="st21" d="M1073.8,124.7c-0.1,0-0.2,0-0.2-0.1c-0.1-0.1-0.1-0.3,0-0.4l2.8-2.8c0.1-0.1,0.3-0.1,0.4,0
									c0.1,0.1,0.1,0.3,0,0.4l-2.8,2.8C1074,124.7,1073.9,124.7,1073.8,124.7z"/>
								<path class="st10" d="M1075,130.6c-0.1,0-0.2,0-0.2-0.1l-2.8-2.8c-0.1-0.1-0.1-0.3,0-0.4s0.3-0.1,0.4,0l2.8,2.8
									c0.1,0.1,0.1,0.3,0,0.4C1075.2,130.5,1075.1,130.6,1075,130.6z"/>
								<path class="st21" d="M1102,113.8c-0.1,0-0.2,0-0.2-0.1c-0.1-0.1-0.1-0.3,0-0.4l2.8-2.8c0.1-0.1,0.3-0.1,0.4,0
									c0.1,0.1,0.1,0.3,0,0.4l-2.8,2.8C1102.2,113.8,1102.1,113.8,1102,113.8z"/>
								<path class="st9" d="M1128.7,84.4c-0.1,0-0.1,0-0.2-0.1l-2.8-2.8c-0.1-0.1-0.1-0.3,0-0.4c0.1-0.1,0.3-0.1,0.4,0l2.8,2.8
									c0.1,0.1,0.1,0.3,0,0.4C1128.9,84.4,1128.8,84.4,1128.7,84.4z"/>
								<path class="st30" d="M1119.1,80.8c-0.2,0-0.3-0.1-0.3-0.3v-4c0-0.2,0.1-0.3,0.3-0.3c0.2,0,0.3,0.1,0.3,0.3v4
									C1119.4,80.6,1119.3,80.8,1119.1,80.8z"/>
								<path class="st30" d="M1140.8,88.3h-4c-0.2,0-0.3-0.1-0.3-0.3c0-0.2,0.1-0.3,0.3-0.3h4c0.2,0,0.3,0.1,0.3,0.3
									C1141.1,88.2,1141,88.3,1140.8,88.3z"/>
								<path class="st10" d="M1115.3,96c-0.1,0-0.2,0-0.2-0.1c-0.1-0.1-0.1-0.3,0-0.4l2.8-2.8c0.1-0.1,0.3-0.1,0.4,0
									c0.1,0.1,0.1,0.3,0,0.4l-2.8,2.8C1115.4,96,1115.4,96,1115.3,96z"/>
								<path class="st10" d="M1097.8,100.1c-0.1,0-0.2,0-0.2-0.1c-0.1-0.1-0.1-0.3,0-0.4l2.8-2.8c0.1-0.1,0.3-0.1,0.4,0
									c0.1,0.1,0.1,0.3,0,0.4l-2.8,2.8C1098,100,1097.9,100.1,1097.8,100.1z"/>
								<path class="st10" d="M1123.2,86.4h-4c-0.2,0-0.3-0.1-0.3-0.3c0-0.2,0.1-0.3,0.3-0.3h4c0.2,0,0.3,0.1,0.3,0.3
									C1123.4,86.2,1123.3,86.4,1123.2,86.4z"/>
								<path class="st21" d="M1083.3,95.9c-0.1,0-0.2,0-0.2-0.1c-0.1-0.1-0.1-0.3,0-0.4l2.8-2.8c0.1-0.1,0.3-0.1,0.4,0
									c0.1,0.1,0.1,0.3,0,0.4l-2.8,2.8C1083.5,95.8,1083.4,95.9,1083.3,95.9z"/>
								<path class="st9" d="M1071.6,84.4c-0.1,0-0.2,0-0.2-0.1l-2.8-2.8c-0.1-0.1-0.1-0.3,0-0.4c0.1-0.1,0.3-0.1,0.4,0l2.8,2.8
									c0.1,0.1,0.1,0.3,0,0.4C1071.7,84.4,1071.6,84.4,1071.6,84.4z"/>
								<path class="st30" d="M1062,80.8c-0.2,0-0.3-0.1-0.3-0.3v-4c0-0.2,0.1-0.3,0.3-0.3c0.2,0,0.3,0.1,0.3,0.3v4
									C1062.3,80.6,1062.2,80.8,1062,80.8z"/>
								<path class="st30" d="M1083.6,88.3h-4c-0.2,0-0.3-0.1-0.3-0.3c0-0.2,0.1-0.3,0.3-0.3h4c0.2,0,0.3,0.1,0.3,0.3
									C1083.9,88.2,1083.8,88.3,1083.6,88.3z"/>
								<path class="st9" d="M1097,69.3c-0.1,0-0.1,0-0.2-0.1l-2.8-2.8c-0.1-0.1-0.1-0.3,0-0.4c0.1-0.1,0.3-0.1,0.4,0l2.8,2.8
									c0.1,0.1,0.1,0.3,0,0.4C1097.1,69.2,1097,69.3,1097,69.3z"/>
								<path class="st30" d="M1111.4,68.4c-0.2,0-0.3-0.1-0.3-0.3v-4c0-0.2,0.1-0.3,0.3-0.3c0.2,0,0.3,0.1,0.3,0.3v4
									C1111.7,68.2,1111.6,68.4,1111.4,68.4z"/>
								<path class="st30" d="M1098.9,88.1c-0.2,0-0.3-0.1-0.3-0.3v-4c0-0.2,0.1-0.3,0.3-0.3c0.2,0,0.3,0.1,0.3,0.3v4
									C1099.2,88,1099.1,88.1,1098.9,88.1z"/>
								<path class="st30" d="M1109.1,73.2h-4c-0.2,0-0.3-0.1-0.3-0.3c0-0.2,0.1-0.3,0.3-0.3h4c0.2,0,0.3,0.1,0.3,0.3
									C1109.3,73,1109.2,73.2,1109.1,73.2z"/>
								<path class="st10" d="M1058.1,96c-0.1,0-0.2,0-0.2-0.1c-0.1-0.1-0.1-0.3,0-0.4l2.8-2.8c0.1-0.1,0.3-0.1,0.4,0
									c0.1,0.1,0.1,0.3,0,0.4l-2.8,2.8C1058.3,96,1058.2,96,1058.1,96z"/>
								<path class="st10" d="M1066,86.4h-4c-0.2,0-0.3-0.1-0.3-0.3c0-0.2,0.1-0.3,0.3-0.3h4c0.2,0,0.3,0.1,0.3,0.3
									C1066.3,86.2,1066.2,86.4,1066,86.4z"/>
							</g>
						</g>
					</g>
				</g>
			</g>
		</g>
	</g>
</g>
</svg>
